<?xml version="1.0" encoding="utf-8" standalone="no"?>
<!DOCTYPE svg PUBLIC "-//W3C//DTD SVG 1.1//EN"
  "http://www.w3.org/Graphics/SVG/1.1/DTD/svg11.dtd">
<svg xmlns:xlink="http://www.w3.org/1999/xlink" width="561.352812pt" height="490.566875pt" viewBox="0 0 561.352812 490.566875" xmlns="http://www.w3.org/2000/svg" version="1.1">
 <metadata>
  <rdf:RDF xmlns:dc="http://purl.org/dc/elements/1.1/" xmlns:cc="http://creativecommons.org/ns#" xmlns:rdf="http://www.w3.org/1999/02/22-rdf-syntax-ns#">
   <cc:Work>
    <dc:type rdf:resource="http://purl.org/dc/dcmitype/StillImage"/>
    <dc:date>2026-06-26T17:12:00.760644</dc:date>
    <dc:format>image/svg+xml</dc:format>
    <dc:creator>
     <cc:Agent>
      <dc:title>Matplotlib v3.10.0, https://matplotlib.org/</dc:title>
     </cc:Agent>
    </dc:creator>
   </cc:Work>
  </rdf:RDF>
 </metadata>
 <defs>
  <style type="text/css">*{stroke-linejoin: round; stroke-linecap: butt}</style>
 </defs>
 <g id="figure_1">
  <g id="patch_1">
   <path d="M 0 490.566875 
L 561.352812 490.566875 
L 561.352812 0 
L 0 0 
z
" style="fill: #ffffff"/>
  </g>
  <g id="axes_1">
   <g id="patch_2">
    <path d="M 63.312813 452.216 
L 554.152812 452.216 
L 554.152812 7.2 
L 63.312813 7.2 
z
" style="fill: #ffffff"/>
   </g>
   <g id="FillBetweenPolyCollection_1">
    <path d="M 172.599508 431.988 
L 147.38733 431.988 
L 128.539295 431.362495 
L 107.598044 430.73699 
L 92.248416 430.111485 
L 85.623722 429.48598 
L 85.837959 428.860475 
L 92.089906 428.23497 
L 102.461223 427.609465 
L 112.43752 426.983961 
L 121.138504 426.358456 
L 129.422635 425.732951 
L 136.245909 425.107446 
L 141.774388 424.481941 
L 146.103734 423.856436 
L 149.113535 423.230931 
L 151.253165 422.605426 
L 152.994513 421.979921 
L 154.545147 421.354416 
L 155.876594 420.728911 
L 156.671521 420.103406 
L 157.174354 419.477901 
L 157.707925 418.852396 
L 158.098545 418.226891 
L 158.327306 417.601387 
L 158.66657 416.975882 
L 158.984899 416.350377 
L 159.052757 415.724872 
L 159.101906 415.099367 
L 159.341882 414.473862 
L 159.586668 413.848357 
L 159.689964 413.222852 
L 159.757427 412.597347 
L 159.793014 411.971842 
L 159.757853 411.346337 
L 159.643901 410.720832 
L 159.564779 410.095327 
L 159.638672 409.469822 
L 159.710224 408.844317 
L 159.765323 408.218813 
L 159.824967 407.593308 
L 159.793552 406.967803 
L 159.757812 406.342298 
L 159.777016 405.716793 
L 159.755648 405.091288 
L 159.764631 404.465783 
L 159.866481 403.840278 
L 159.924768 403.214773 
L 159.909523 402.589268 
L 159.892489 401.963763 
L 159.897797 401.338258 
L 159.897705 400.712753 
L 159.885411 400.087248 
L 159.888351 399.461743 
L 159.896044 398.836239 
L 159.919171 398.210734 
L 159.946285 397.585229 
L 159.972682 396.959724 
L 159.985404 396.334219 
L 159.960598 395.708714 
L 159.898099 395.083209 
L 159.860459 394.457704 
L 159.894121 393.832199 
L 159.958036 393.206694 
L 159.988297 392.581189 
L 159.993145 391.955684 
L 159.993413 391.330179 
L 159.993411 390.704674 
L 159.993071 390.079169 
L 159.988354 389.453665 
L 159.966849 388.82816 
L 159.930845 388.202655 
L 159.910571 387.57715 
L 159.940899 386.951645 
L 159.981035 386.32614 
L 159.992435 385.700635 
L 159.993393 385.07513 
L 159.993418 384.449625 
L 159.993419 383.82412 
L 159.993419 383.198615 
L 159.993419 382.57311 
L 159.993419 381.947605 
L 159.993419 381.3221 
L 159.993419 380.696595 
L 159.993419 380.071091 
L 159.993419 379.445586 
L 159.993418 378.820081 
L 159.993377 378.194576 
L 159.992268 377.569071 
L 159.983061 376.943566 
L 159.963015 376.318061 
L 159.96431 375.692556 
L 159.98433 375.067051 
L 159.992493 374.441546 
L 159.993388 373.816041 
L 159.993418 373.190536 
L 159.993414 372.565031 
L 159.993197 371.939526 
L 159.989776 371.314021 
L 159.973859 370.688517 
L 159.959168 370.063012 
L 160.027669 370.063012 
L 160.027669 370.063012 
L 160.012978 370.688517 
L 159.997062 371.314021 
L 159.99364 371.939526 
L 159.993423 372.565031 
L 159.993419 373.190536 
L 159.993449 373.816041 
L 159.994344 374.441546 
L 160.002507 375.067051 
L 160.022527 375.692556 
L 160.023823 376.318061 
L 160.003776 376.943566 
L 159.994569 377.569071 
L 159.99346 378.194576 
L 159.993419 378.820081 
L 159.993419 379.445586 
L 159.993419 380.071091 
L 159.993419 380.696595 
L 159.993419 381.3221 
L 159.993419 381.947605 
L 159.993419 382.57311 
L 159.993419 383.198615 
L 159.993419 383.82412 
L 159.993419 384.449625 
L 159.993444 385.07513 
L 159.994402 385.700635 
L 160.005802 386.32614 
L 160.045939 386.951645 
L 160.076266 387.57715 
L 160.055992 388.202655 
L 160.019988 388.82816 
L 159.998484 389.453665 
L 159.993766 390.079169 
L 159.993427 390.704674 
L 159.993424 391.330179 
L 159.993692 391.955684 
L 159.99854 392.581189 
L 160.028801 393.206694 
L 160.092716 393.832199 
L 160.126379 394.457704 
L 160.088738 395.083209 
L 160.026239 395.708714 
L 160.001433 396.334219 
L 160.014156 396.959724 
L 160.040552 397.585229 
L 160.067666 398.210734 
L 160.090793 398.836239 
L 160.098486 399.461743 
L 160.101426 400.087248 
L 160.089132 400.712753 
L 160.08904 401.338258 
L 160.094348 401.963763 
L 160.077314 402.589268 
L 160.06207 403.214773 
L 160.120357 403.840278 
L 160.222206 404.465783 
L 160.231189 405.091288 
L 160.209821 405.716793 
L 160.229025 406.342298 
L 160.193286 406.967803 
L 160.16187 407.593308 
L 160.221515 408.218813 
L 160.276613 408.844317 
L 160.348165 409.469822 
L 160.422058 410.095327 
L 160.342936 410.720832 
L 160.228984 411.346337 
L 160.193824 411.971842 
L 160.22941 412.597347 
L 160.296873 413.222852 
L 160.40017 413.848357 
L 160.644955 414.473862 
L 160.884931 415.099367 
L 160.93408 415.724872 
L 161.001938 416.350377 
L 161.320267 416.975882 
L 161.659532 417.601387 
L 161.888292 418.226891 
L 162.278912 418.852396 
L 162.812483 419.477901 
L 163.315316 420.103406 
L 164.110243 420.728911 
L 165.44169 421.354416 
L 166.992324 421.979921 
L 168.733672 422.605426 
L 170.873302 423.230931 
L 173.883103 423.856436 
L 178.212449 424.481941 
L 183.740928 425.107446 
L 190.564202 425.732951 
L 198.848333 426.358456 
L 207.549317 426.983961 
L 217.525614 427.609465 
L 227.896932 428.23497 
L 234.148878 428.860475 
L 234.363116 429.48598 
L 227.738421 430.111485 
L 212.388793 430.73699 
L 191.447542 431.362495 
L 172.599508 431.988 
z
" clip-path="url(#pff8e42e63d)" style="fill: #2196f3; fill-opacity: 0.6"/>
   </g>
   <g id="FillBetweenPolyCollection_2">
    <path d="M 520.223124 431.988 
L 394.721289 431.988 
L 383.102509 427.901535 
L 388.260321 423.815071 
L 405.430606 419.728606 
L 424.063956 415.642141 
L 437.377737 411.555677 
L 444.948179 407.469212 
L 449.166705 403.382747 
L 451.913062 399.296283 
L 453.842462 395.209818 
L 455.041866 391.123354 
L 455.619219 387.036889 
L 455.800744 382.950424 
L 455.789975 378.86396 
L 455.708722 374.777495 
L 455.657676 370.69103 
L 455.742105 366.604566 
L 456.012069 362.518101 
L 456.412643 358.431636 
L 456.808234 354.345172 
L 457.067603 350.258707 
L 457.148303 346.172242 
L 457.105529 342.085778 
L 457.027844 337.999313 
L 456.97958 333.912848 
L 456.990332 329.826384 
L 457.057004 325.739919 
L 457.14112 321.653455 
L 457.195611 317.56699 
L 457.214857 313.480525 
L 457.238291 309.394061 
L 457.294702 305.307596 
L 457.368107 301.221131 
L 457.426283 297.134667 
L 457.457095 293.048202 
L 457.468502 288.961737 
L 457.471471 284.875273 
L 457.47163 280.788808 
L 457.469387 276.702343 
L 457.460122 272.615879 
L 457.433606 268.529414 
L 457.380581 264.442949 
L 457.310598 260.356485 
L 457.260403 256.27002 
L 457.265941 252.183556 
L 457.322946 248.097091 
L 457.391949 244.010626 
L 457.44014 239.924162 
L 457.462686 235.837697 
L 457.470106 231.751232 
L 457.471862 227.664768 
L 457.472165 223.578303 
L 457.472203 219.491838 
L 457.472206 215.405374 
L 457.472206 211.318909 
L 457.472206 207.232444 
L 457.472206 203.14598 
L 457.472206 199.059515 
L 457.472206 194.973051 
L 457.472206 190.886586 
L 457.472206 186.800121 
L 457.472206 182.713657 
L 457.472206 178.627192 
L 457.472206 174.540727 
L 457.472206 170.454263 
L 457.472206 166.367798 
L 457.472206 162.281333 
L 457.472206 158.194869 
L 457.472206 154.108404 
L 457.472206 150.021939 
L 457.472206 145.935475 
L 457.472206 141.84901 
L 457.472206 137.762545 
L 457.472206 133.676081 
L 457.472206 129.589616 
L 457.472206 125.503152 
L 457.472206 121.416687 
L 457.472206 117.330222 
L 457.472206 113.243758 
L 457.472206 109.157293 
L 457.472206 105.070828 
L 457.472206 100.984364 
L 457.472206 96.897899 
L 457.472206 92.811434 
L 457.472206 88.72497 
L 457.472206 84.638505 
L 457.472206 80.55204 
L 457.472206 76.465576 
L 457.472206 72.379111 
L 457.472206 68.292646 
L 457.472205 64.206182 
L 457.47219 60.119717 
L 457.472056 56.033253 
L 457.471171 51.946788 
L 457.466902 47.860323 
L 457.452023 43.773859 
L 457.415135 39.687394 
L 457.352294 35.600929 
L 457.284997 31.514465 
L 457.255028 27.428 
L 457.689384 27.428 
L 457.689384 27.428 
L 457.659416 31.514465 
L 457.592119 35.600929 
L 457.529278 39.687394 
L 457.49239 43.773859 
L 457.477511 47.860323 
L 457.473242 51.946788 
L 457.472357 56.033253 
L 457.472223 60.119717 
L 457.472208 64.206182 
L 457.472207 68.292646 
L 457.472206 72.379111 
L 457.472206 76.465576 
L 457.472206 80.55204 
L 457.472206 84.638505 
L 457.472206 88.72497 
L 457.472206 92.811434 
L 457.472206 96.897899 
L 457.472206 100.984364 
L 457.472206 105.070828 
L 457.472206 109.157293 
L 457.472206 113.243758 
L 457.472206 117.330222 
L 457.472206 121.416687 
L 457.472206 125.503152 
L 457.472206 129.589616 
L 457.472206 133.676081 
L 457.472206 137.762545 
L 457.472206 141.84901 
L 457.472206 145.935475 
L 457.472206 150.021939 
L 457.472206 154.108404 
L 457.472206 158.194869 
L 457.472206 162.281333 
L 457.472206 166.367798 
L 457.472206 170.454263 
L 457.472206 174.540727 
L 457.472206 178.627192 
L 457.472206 182.713657 
L 457.472206 186.800121 
L 457.472206 190.886586 
L 457.472206 194.973051 
L 457.472206 199.059515 
L 457.472206 203.14598 
L 457.472206 207.232444 
L 457.472206 211.318909 
L 457.472207 215.405374 
L 457.47221 219.491838 
L 457.472248 223.578303 
L 457.472551 227.664768 
L 457.474307 231.751232 
L 457.481726 235.837697 
L 457.504273 239.924162 
L 457.552464 244.010626 
L 457.621467 248.097091 
L 457.678472 252.183556 
L 457.68401 256.27002 
L 457.633815 260.356485 
L 457.563832 264.442949 
L 457.510807 268.529414 
L 457.484291 272.615879 
L 457.475026 276.702343 
L 457.472783 280.788808 
L 457.472942 284.875273 
L 457.475911 288.961737 
L 457.487318 293.048202 
L 457.51813 297.134667 
L 457.576306 301.221131 
L 457.649711 305.307596 
L 457.706122 309.394061 
L 457.729556 313.480525 
L 457.748802 317.56699 
L 457.803293 321.653455 
L 457.887409 325.739919 
L 457.954081 329.826384 
L 457.964833 333.912848 
L 457.916569 337.999313 
L 457.838884 342.085778 
L 457.79611 346.172242 
L 457.87681 350.258707 
L 458.136179 354.345172 
L 458.531769 358.431636 
L 458.932344 362.518101 
L 459.202308 366.604566 
L 459.286736 370.69103 
L 459.235691 374.777495 
L 459.154438 378.86396 
L 459.143669 382.950424 
L 459.325194 387.036889 
L 459.902547 391.123354 
L 461.101951 395.209818 
L 463.03135 399.296283 
L 465.777708 403.382747 
L 469.996234 407.469212 
L 477.566676 411.555677 
L 490.880457 415.642141 
L 509.513807 419.728606 
L 526.684092 423.815071 
L 531.841903 427.901535 
L 520.223124 431.988 
z
" clip-path="url(#pff8e42e63d)" style="fill: #f44336; fill-opacity: 0.6"/>
   </g>
   <g id="matplotlib.axis_1">
    <g id="xtick_1">
     <g id="line2d_1">
      <path d="M 159.993419 452.216 
L 159.993419 7.2 
" clip-path="url(#pff8e42e63d)" style="fill: none; stroke: #b0b0b0; stroke-opacity: 0.4; stroke-width: 0.8; stroke-linecap: square"/>
     </g>
     <g id="line2d_2">
      <defs>
       <path id="mfc73f05487" d="M 0 0 
L 0 3.5 
" style="stroke: #000000; stroke-width: 0.8"/>
      </defs>
      <g>
       <use xlink:href="#mfc73f05487" x="159.993419" y="452.216" style="stroke: #000000; stroke-width: 0.8"/>
      </g>
     </g>
     <g id="text_1">
      <!-- Normal -->
      <g transform="translate(134.786856 467.795375) scale(0.14 -0.14)">
       <defs>
        <path id="CourierNewPSMT-4e" d="M 3206 0 
L 2869 0 
L 934 3272 
L 934 263 
L 1419 263 
Q 1516 263 1556 227 
Q 1597 191 1597 131 
Q 1597 75 1556 37 
Q 1516 0 1419 0 
L 453 0 
Q 356 0 315 37 
Q 275 75 275 131 
Q 275 191 315 227 
Q 356 263 453 263 
L 672 263 
L 672 3394 
L 319 3394 
Q 225 3394 184 3430 
Q 144 3466 144 3525 
Q 144 3584 184 3620 
Q 225 3656 319 3656 
L 1006 3656 
L 2944 378 
L 2944 3394 
L 2459 3394 
Q 2366 3394 2325 3430 
Q 2284 3466 2284 3525 
Q 2284 3584 2323 3620 
Q 2363 3656 2459 3656 
L 3428 3656 
Q 3522 3656 3562 3620 
Q 3603 3584 3603 3525 
Q 3603 3466 3562 3430 
Q 3522 3394 3428 3394 
L 3206 3394 
L 3206 0 
z
" transform="scale(0.015625)"/>
        <path id="CourierNewPSMT-6f" d="M 3388 1347 
Q 3388 747 2958 322 
Q 2528 -103 1922 -103 
Q 1309 -103 881 323 
Q 453 750 453 1347 
Q 453 1947 881 2373 
Q 1309 2800 1922 2800 
Q 2528 2800 2958 2375 
Q 3388 1950 3388 1347 
z
M 3122 1347 
Q 3122 1841 2770 2187 
Q 2419 2534 1919 2534 
Q 1419 2534 1067 2186 
Q 716 1838 716 1347 
Q 716 859 1067 509 
Q 1419 159 1919 159 
Q 2419 159 2770 507 
Q 3122 856 3122 1347 
z
" transform="scale(0.015625)"/>
        <path id="CourierNewPSMT-72" d="M 1606 2706 
L 1606 2044 
Q 2119 2506 2373 2639 
Q 2628 2772 2844 2772 
Q 3078 2772 3279 2614 
Q 3481 2456 3481 2375 
Q 3481 2316 3442 2277 
Q 3403 2238 3344 2238 
Q 3313 2238 3291 2248 
Q 3269 2259 3209 2319 
Q 3100 2428 3019 2468 
Q 2938 2509 2859 2509 
Q 2688 2509 2445 2371 
Q 2203 2234 1606 1700 
L 1606 263 
L 2769 263 
Q 2866 263 2906 227 
Q 2947 191 2947 131 
Q 2947 75 2906 37 
Q 2866 0 2769 0 
L 709 0 
Q 616 0 575 36 
Q 534 72 534 128 
Q 534 181 573 217 
Q 613 253 709 253 
L 1344 253 
L 1344 2441 
L 859 2441 
Q 766 2441 725 2478 
Q 684 2516 684 2575 
Q 684 2631 723 2668 
Q 763 2706 859 2706 
L 1606 2706 
z
" transform="scale(0.015625)"/>
        <path id="CourierNewPSMT-6d" d="M 725 2706 
L 725 2441 
Q 1059 2800 1397 2800 
Q 1600 2800 1753 2692 
Q 1906 2584 2009 2366 
Q 2184 2584 2364 2692 
Q 2544 2800 2725 2800 
Q 3009 2800 3178 2616 
Q 3400 2378 3400 2097 
L 3400 263 
L 3622 263 
Q 3716 263 3756 227 
Q 3797 191 3797 131 
Q 3797 75 3756 37 
Q 3716 0 3622 0 
L 3138 0 
L 3138 2072 
Q 3138 2272 3016 2403 
Q 2894 2534 2734 2534 
Q 2591 2534 2431 2426 
Q 2272 2319 2069 2003 
L 2069 263 
L 2288 263 
Q 2381 263 2422 227 
Q 2463 191 2463 131 
Q 2463 75 2422 37 
Q 2381 0 2288 0 
L 1803 0 
L 1803 2053 
Q 1803 2263 1679 2398 
Q 1556 2534 1403 2534 
Q 1263 2534 1125 2444 
Q 934 2316 725 2003 
L 725 263 
L 947 263 
Q 1041 263 1081 227 
Q 1122 191 1122 131 
Q 1122 75 1081 37 
Q 1041 0 947 0 
L 241 0 
Q 147 0 106 37 
Q 66 75 66 131 
Q 66 191 106 227 
Q 147 263 241 263 
L 463 263 
L 463 2441 
L 241 2441 
Q 147 2441 106 2478 
Q 66 2516 66 2575 
Q 66 2631 106 2668 
Q 147 2706 241 2706 
L 725 2706 
z
" transform="scale(0.015625)"/>
        <path id="CourierNewPSMT-61" d="M 2675 0 
L 2675 378 
Q 2103 -103 1453 -103 
Q 981 -103 715 136 
Q 450 375 450 722 
Q 450 1103 800 1387 
Q 1150 1672 1822 1672 
Q 2003 1672 2215 1648 
Q 2428 1625 2675 1575 
L 2675 2000 
Q 2675 2216 2475 2375 
Q 2275 2534 1875 2534 
Q 1569 2534 1016 2356 
Q 916 2325 888 2325 
Q 838 2325 802 2362 
Q 766 2400 766 2456 
Q 766 2509 797 2541 
Q 841 2588 1150 2669 
Q 1638 2800 1888 2800 
Q 2384 2800 2662 2554 
Q 2941 2309 2941 2000 
L 2941 263 
L 3291 263 
Q 3388 263 3428 227 
Q 3469 191 3469 131 
Q 3469 75 3428 37 
Q 3388 0 3291 0 
L 2675 0 
z
M 2675 1306 
Q 2491 1359 2284 1384 
Q 2078 1409 1850 1409 
Q 1278 1409 956 1163 
Q 713 978 713 722 
Q 713 484 898 321 
Q 1084 159 1441 159 
Q 1781 159 2073 295 
Q 2366 431 2675 728 
L 2675 1306 
z
" transform="scale(0.015625)"/>
        <path id="CourierNewPSMT-6c" d="M 2053 3922 
L 2053 263 
L 3084 263 
Q 3181 263 3222 227 
Q 3263 191 3263 131 
Q 3263 75 3222 37 
Q 3181 0 3084 0 
L 759 0 
Q 666 0 625 37 
Q 584 75 584 131 
Q 584 191 625 227 
Q 666 263 759 263 
L 1791 263 
L 1791 3656 
L 1034 3656 
Q 941 3656 898 3693 
Q 856 3731 856 3791 
Q 856 3847 897 3884 
Q 938 3922 1034 3922 
L 2053 3922 
z
" transform="scale(0.015625)"/>
       </defs>
       <use xlink:href="#CourierNewPSMT-4e"/>
       <use xlink:href="#CourierNewPSMT-6f" transform="translate(60.009766 0)"/>
       <use xlink:href="#CourierNewPSMT-72" transform="translate(120.019531 0)"/>
       <use xlink:href="#CourierNewPSMT-6d" transform="translate(180.029297 0)"/>
       <use xlink:href="#CourierNewPSMT-61" transform="translate(240.039062 0)"/>
       <use xlink:href="#CourierNewPSMT-6c" transform="translate(300.048828 0)"/>
      </g>
      <!-- (n=8300) -->
      <g transform="translate(126.384669 480.72875) scale(0.14 -0.14)">
       <defs>
        <path id="CourierNewPSMT-28" d="M 1891 1556 
Q 1891 1916 1984 2319 
Q 2078 2722 2343 3250 
Q 2609 3778 2731 3888 
Q 2769 3922 2813 3922 
Q 2869 3922 2908 3884 
Q 2947 3847 2947 3794 
Q 2947 3763 2925 3725 
Q 2581 3094 2434 2581 
Q 2288 2069 2288 1556 
Q 2288 1041 2434 528 
Q 2581 16 2925 -613 
Q 2947 -650 2947 -681 
Q 2947 -734 2908 -773 
Q 2869 -813 2813 -813 
Q 2769 -813 2731 -778 
Q 2616 -672 2353 -156 
Q 2091 359 1991 756 
Q 1891 1153 1891 1556 
z
" transform="scale(0.015625)"/>
        <path id="CourierNewPSMT-6e" d="M 1072 2706 
L 1072 2309 
Q 1347 2588 1569 2694 
Q 1791 2800 2069 2800 
Q 2369 2800 2616 2672 
Q 2791 2578 2933 2361 
Q 3075 2144 3075 1916 
L 3075 263 
L 3297 263 
Q 3391 263 3431 227 
Q 3472 191 3472 131 
Q 3472 75 3431 37 
Q 3391 0 3297 0 
L 2594 0 
Q 2497 0 2456 37 
Q 2416 75 2416 131 
Q 2416 191 2456 227 
Q 2497 263 2594 263 
L 2813 263 
L 2813 1872 
Q 2813 2150 2609 2342 
Q 2406 2534 2066 2534 
Q 1806 2534 1615 2429 
Q 1425 2325 1072 1909 
L 1072 263 
L 1369 263 
Q 1463 263 1503 227 
Q 1544 191 1544 131 
Q 1544 75 1503 37 
Q 1463 0 1369 0 
L 513 0 
Q 419 0 378 37 
Q 338 75 338 131 
Q 338 191 378 227 
Q 419 263 513 263 
L 809 263 
L 809 2441 
L 588 2441 
Q 494 2441 453 2478 
Q 413 2516 413 2575 
Q 413 2631 453 2668 
Q 494 2706 588 2706 
L 1072 2706 
z
" transform="scale(0.015625)"/>
        <path id="CourierNewPSMT-3d" d="M 3353 2172 
L 491 2172 
Q 397 2172 356 2209 
Q 316 2247 316 2306 
Q 316 2363 356 2400 
Q 397 2438 491 2438 
L 3353 2438 
Q 3447 2438 3487 2400 
Q 3528 2363 3528 2303 
Q 3528 2247 3487 2209 
Q 3447 2172 3353 2172 
z
M 3353 1231 
L 491 1231 
Q 397 1231 356 1267 
Q 316 1303 316 1363 
Q 316 1422 356 1458 
Q 397 1494 491 1494 
L 3353 1494 
Q 3447 1494 3487 1458 
Q 3528 1422 3528 1363 
Q 3528 1303 3487 1267 
Q 3447 1231 3353 1231 
z
" transform="scale(0.015625)"/>
        <path id="CourierNewPSMT-38" d="M 2459 2034 
Q 2788 1875 2955 1614 
Q 3122 1353 3122 1053 
Q 3122 588 2772 247 
Q 2422 -94 1922 -94 
Q 1422 -94 1072 247 
Q 722 588 722 1053 
Q 722 1350 889 1611 
Q 1056 1872 1388 2034 
Q 1100 2200 969 2378 
Q 788 2631 788 2938 
Q 788 3369 1120 3692 
Q 1453 4016 1922 4016 
Q 2394 4016 2725 3692 
Q 3056 3369 3056 2938 
Q 3056 2631 2875 2381 
Q 2747 2200 2459 2034 
z
M 2788 2928 
Q 2788 3266 2536 3508 
Q 2284 3750 1919 3750 
Q 1556 3750 1304 3506 
Q 1053 3263 1053 2931 
Q 1053 2625 1301 2395 
Q 1550 2166 1919 2166 
Q 2291 2166 2539 2395 
Q 2788 2625 2788 2928 
z
M 2859 1047 
Q 2859 1394 2590 1650 
Q 2322 1906 1922 1906 
Q 1522 1906 1253 1650 
Q 984 1394 984 1050 
Q 984 694 1254 431 
Q 1525 169 1922 169 
Q 2319 169 2589 431 
Q 2859 694 2859 1047 
z
" transform="scale(0.015625)"/>
        <path id="CourierNewPSMT-33" d="M 2459 2134 
Q 2822 1972 3012 1689 
Q 3203 1406 3203 1100 
Q 3203 628 2820 267 
Q 2438 -94 1863 -94 
Q 1525 -94 1162 50 
Q 800 194 656 344 
Q 609 394 609 450 
Q 609 500 645 537 
Q 681 575 731 575 
Q 781 575 844 528 
Q 1328 169 1869 169 
Q 2325 169 2633 455 
Q 2941 741 2941 1091 
Q 2941 1325 2789 1550 
Q 2638 1775 2353 1904 
Q 2069 2034 1778 2034 
Q 1684 2034 1643 2070 
Q 1603 2106 1603 2166 
Q 1603 2222 1642 2259 
Q 1681 2297 1759 2297 
L 1984 2294 
Q 2338 2294 2567 2509 
Q 2797 2725 2797 3009 
Q 2797 3303 2556 3528 
Q 2316 3753 1928 3753 
Q 1656 3753 1428 3659 
Q 1200 3566 1063 3403 
Q 1013 3341 986 3327 
Q 959 3313 925 3313 
Q 872 3313 834 3348 
Q 797 3384 797 3434 
Q 797 3559 1069 3750 
Q 1447 4016 1928 4016 
Q 2425 4016 2744 3717 
Q 3063 3419 3063 3006 
Q 3063 2744 2909 2509 
Q 2756 2275 2459 2134 
z
" transform="scale(0.015625)"/>
        <path id="CourierNewPSMT-30" d="M 3125 2284 
L 3125 1634 
Q 3125 788 2722 294 
Q 2406 -94 1925 -94 
Q 1694 -94 1489 -1 
Q 1284 91 1141 256 
Q 1050 359 942 587 
Q 834 816 788 1006 
Q 716 1275 716 1634 
L 716 2284 
Q 716 3134 1119 3628 
Q 1434 4016 1916 4016 
Q 2150 4016 2353 3923 
Q 2556 3831 2700 3666 
Q 2794 3559 2900 3331 
Q 3006 3103 3056 2916 
Q 3125 2647 3125 2284 
z
M 2863 2250 
Q 2863 2622 2758 2942 
Q 2653 3263 2522 3453 
Q 2444 3563 2319 3641 
Q 2141 3750 1919 3750 
Q 1478 3750 1228 3300 
Q 978 2850 978 2250 
L 978 1672 
Q 978 1300 1083 978 
Q 1188 656 1322 466 
Q 1397 359 1522 281 
Q 1700 169 1925 169 
Q 2363 169 2613 620 
Q 2863 1072 2863 1672 
L 2863 2250 
z
" transform="scale(0.015625)"/>
        <path id="CourierNewPSMT-29" d="M 1997 1553 
Q 1997 1194 1903 792 
Q 1809 391 1543 -139 
Q 1278 -669 1156 -775 
Q 1119 -813 1075 -813 
Q 1019 -813 980 -773 
Q 941 -734 941 -681 
Q 941 -650 963 -613 
Q 1306 16 1453 528 
Q 1600 1041 1600 1553 
Q 1600 2069 1453 2581 
Q 1306 3094 963 3725 
Q 941 3763 941 3794 
Q 941 3847 980 3884 
Q 1019 3922 1075 3922 
Q 1119 3922 1156 3888 
Q 1272 3781 1534 3265 
Q 1797 2750 1897 2353 
Q 1997 1956 1997 1553 
z
" transform="scale(0.015625)"/>
       </defs>
       <use xlink:href="#CourierNewPSMT-28"/>
       <use xlink:href="#CourierNewPSMT-6e" transform="translate(60.009766 0)"/>
       <use xlink:href="#CourierNewPSMT-3d" transform="translate(120.019531 0)"/>
       <use xlink:href="#CourierNewPSMT-38" transform="translate(180.029297 0)"/>
       <use xlink:href="#CourierNewPSMT-33" transform="translate(240.039062 0)"/>
       <use xlink:href="#CourierNewPSMT-30" transform="translate(300.048828 0)"/>
       <use xlink:href="#CourierNewPSMT-30" transform="translate(360.058594 0)"/>
       <use xlink:href="#CourierNewPSMT-29" transform="translate(420.068359 0)"/>
      </g>
     </g>
    </g>
    <g id="xtick_2">
     <g id="line2d_3">
      <path d="M 457.472206 452.216 
L 457.472206 7.2 
" clip-path="url(#pff8e42e63d)" style="fill: none; stroke: #b0b0b0; stroke-opacity: 0.4; stroke-width: 0.8; stroke-linecap: square"/>
     </g>
     <g id="line2d_4">
      <g>
       <use xlink:href="#mfc73f05487" x="457.472206" y="452.216" style="stroke: #000000; stroke-width: 0.8"/>
      </g>
     </g>
     <g id="text_2">
      <!-- Anomalous -->
      <g transform="translate(419.662363 467.795375) scale(0.14 -0.14)">
       <defs>
        <path id="CourierNewPSMT-41" d="M 2784 1222 
L 1059 1222 
L 706 263 
L 1209 263 
Q 1303 263 1343 227 
Q 1384 191 1384 131 
Q 1384 75 1343 37 
Q 1303 0 1209 0 
L 228 0 
Q 134 0 93 37 
Q 53 75 53 131 
Q 53 191 93 227 
Q 134 263 228 263 
L 431 263 
L 1591 3394 
L 816 3394 
Q 722 3394 681 3430 
Q 641 3466 641 3525 
Q 641 3584 681 3620 
Q 722 3656 816 3656 
L 2138 3656 
L 3419 263 
L 3622 263 
Q 3716 263 3756 227 
Q 3797 191 3797 131 
Q 3797 75 3756 37 
Q 3716 0 3622 0 
L 2644 0 
Q 2547 0 2506 37 
Q 2466 75 2466 131 
Q 2466 191 2506 227 
Q 2547 263 2644 263 
L 3144 263 
L 2784 1222 
z
M 2684 1484 
L 1959 3394 
L 1863 3394 
L 1159 1484 
L 2684 1484 
z
" transform="scale(0.015625)"/>
        <path id="CourierNewPSMT-75" d="M 2819 0 
L 2819 384 
Q 2281 -103 1656 -103 
Q 1272 -103 1072 106 
Q 813 381 813 747 
L 813 2441 
L 459 2441 
Q 366 2441 325 2478 
Q 284 2516 284 2575 
Q 284 2631 325 2668 
Q 366 2706 459 2706 
L 1075 2706 
L 1075 747 
Q 1075 491 1237 325 
Q 1400 159 1644 159 
Q 2284 159 2819 747 
L 2819 2441 
L 2334 2441 
Q 2241 2441 2200 2478 
Q 2159 2516 2159 2575 
Q 2159 2631 2200 2668 
Q 2241 2706 2334 2706 
L 3081 2706 
L 3081 263 
L 3303 263 
Q 3397 263 3437 227 
Q 3478 191 3478 131 
Q 3478 75 3437 37 
Q 3397 0 3303 0 
L 2819 0 
z
" transform="scale(0.015625)"/>
        <path id="CourierNewPSMT-73" d="M 2788 2534 
Q 2788 2625 2825 2665 
Q 2863 2706 2919 2706 
Q 2978 2706 3015 2665 
Q 3053 2625 3053 2528 
L 3053 2078 
Q 3053 1984 3015 1943 
Q 2978 1903 2919 1903 
Q 2866 1903 2830 1937 
Q 2794 1972 2788 2050 
Q 2769 2238 2594 2359 
Q 2338 2534 1916 2534 
Q 1475 2534 1231 2356 
Q 1047 2222 1047 2056 
Q 1047 1869 1266 1744 
Q 1416 1656 1834 1609 
Q 2381 1550 2594 1475 
Q 2897 1366 3045 1172 
Q 3194 978 3194 753 
Q 3194 419 2872 158 
Q 2550 -103 1928 -103 
Q 1306 -103 909 213 
Q 909 106 896 75 
Q 884 44 851 22 
Q 819 0 778 0 
Q 722 0 684 40 
Q 647 81 647 175 
L 647 716 
Q 647 809 683 850 
Q 719 891 778 891 
Q 834 891 873 852 
Q 913 813 913 747 
Q 913 603 984 506 
Q 1094 356 1333 257 
Q 1572 159 1919 159 
Q 2431 159 2681 350 
Q 2931 541 2931 753 
Q 2931 997 2678 1144 
Q 2422 1291 1933 1341 
Q 1444 1391 1231 1472 
Q 1019 1553 900 1715 
Q 781 1878 781 2066 
Q 781 2403 1112 2601 
Q 1444 2800 1903 2800 
Q 2447 2800 2788 2534 
z
" transform="scale(0.015625)"/>
       </defs>
       <use xlink:href="#CourierNewPSMT-41"/>
       <use xlink:href="#CourierNewPSMT-6e" transform="translate(60.009766 0)"/>
       <use xlink:href="#CourierNewPSMT-6f" transform="translate(120.019531 0)"/>
       <use xlink:href="#CourierNewPSMT-6d" transform="translate(180.029297 0)"/>
       <use xlink:href="#CourierNewPSMT-61" transform="translate(240.039062 0)"/>
       <use xlink:href="#CourierNewPSMT-6c" transform="translate(300.048828 0)"/>
       <use xlink:href="#CourierNewPSMT-6f" transform="translate(360.058594 0)"/>
       <use xlink:href="#CourierNewPSMT-75" transform="translate(420.068359 0)"/>
       <use xlink:href="#CourierNewPSMT-73" transform="translate(480.078125 0)"/>
      </g>
      <!-- (n=437) -->
      <g transform="translate(428.06455 480.72875) scale(0.14 -0.14)">
       <defs>
        <path id="CourierNewPSMT-34" d="M 2409 1097 
L 669 1097 
L 669 1400 
L 2128 3922 
L 2675 3922 
L 2675 1359 
L 2894 1359 
Q 2991 1359 3031 1323 
Q 3072 1288 3072 1228 
Q 3072 1172 3031 1134 
Q 2991 1097 2894 1097 
L 2675 1097 
L 2675 263 
L 2894 263 
Q 2991 263 3031 227 
Q 3072 191 3072 131 
Q 3072 75 3031 37 
Q 2991 0 2894 0 
L 1919 0 
Q 1822 0 1781 37 
Q 1741 75 1741 131 
Q 1741 191 1781 227 
Q 1822 263 1919 263 
L 2409 263 
L 2409 1097 
z
M 2409 1359 
L 2409 3656 
L 2272 3656 
L 944 1359 
L 2409 1359 
z
" transform="scale(0.015625)"/>
        <path id="CourierNewPSMT-37" d="M 2803 3538 
L 2803 3656 
L 922 3656 
L 922 3425 
Q 922 3331 886 3290 
Q 850 3250 791 3250 
Q 734 3250 696 3290 
Q 659 3331 659 3425 
L 659 3922 
L 3069 3922 
L 3069 3503 
L 2013 128 
Q 1988 47 1953 20 
Q 1919 -6 1875 -6 
Q 1819 -6 1781 31 
Q 1744 69 1744 119 
Q 1744 150 1763 206 
L 2803 3538 
z
" transform="scale(0.015625)"/>
       </defs>
       <use xlink:href="#CourierNewPSMT-28"/>
       <use xlink:href="#CourierNewPSMT-6e" transform="translate(60.009766 0)"/>
       <use xlink:href="#CourierNewPSMT-3d" transform="translate(120.019531 0)"/>
       <use xlink:href="#CourierNewPSMT-34" transform="translate(180.029297 0)"/>
       <use xlink:href="#CourierNewPSMT-33" transform="translate(240.039062 0)"/>
       <use xlink:href="#CourierNewPSMT-37" transform="translate(300.048828 0)"/>
       <use xlink:href="#CourierNewPSMT-29" transform="translate(360.058594 0)"/>
      </g>
     </g>
    </g>
    <g id="xtick_3">
     <g id="line2d_5">
      <path d="M 100.497661 452.216 
L 100.497661 7.2 
" clip-path="url(#pff8e42e63d)" style="fill: none; stroke: #b0b0b0; stroke-opacity: 0.15; stroke-width: 0.8; stroke-linecap: square"/>
     </g>
     <g id="line2d_6">
      <defs>
       <path id="m086ec30ad7" d="M 0 0 
L 0 2 
" style="stroke: #000000; stroke-width: 0.6"/>
      </defs>
      <g>
       <use xlink:href="#m086ec30ad7" x="100.497661" y="452.216" style="stroke: #000000; stroke-width: 0.6"/>
      </g>
     </g>
    </g>
    <g id="xtick_4">
     <g id="line2d_7">
      <path d="M 219.489176 452.216 
L 219.489176 7.2 
" clip-path="url(#pff8e42e63d)" style="fill: none; stroke: #b0b0b0; stroke-opacity: 0.15; stroke-width: 0.8; stroke-linecap: square"/>
     </g>
     <g id="line2d_8">
      <g>
       <use xlink:href="#m086ec30ad7" x="219.489176" y="452.216" style="stroke: #000000; stroke-width: 0.6"/>
      </g>
     </g>
    </g>
    <g id="xtick_5">
     <g id="line2d_9">
      <path d="M 278.984934 452.216 
L 278.984934 7.2 
" clip-path="url(#pff8e42e63d)" style="fill: none; stroke: #b0b0b0; stroke-opacity: 0.15; stroke-width: 0.8; stroke-linecap: square"/>
     </g>
     <g id="line2d_10">
      <g>
       <use xlink:href="#m086ec30ad7" x="278.984934" y="452.216" style="stroke: #000000; stroke-width: 0.6"/>
      </g>
     </g>
    </g>
    <g id="xtick_6">
     <g id="line2d_11">
      <path d="M 338.480691 452.216 
L 338.480691 7.2 
" clip-path="url(#pff8e42e63d)" style="fill: none; stroke: #b0b0b0; stroke-opacity: 0.15; stroke-width: 0.8; stroke-linecap: square"/>
     </g>
     <g id="line2d_12">
      <g>
       <use xlink:href="#m086ec30ad7" x="338.480691" y="452.216" style="stroke: #000000; stroke-width: 0.6"/>
      </g>
     </g>
    </g>
    <g id="xtick_7">
     <g id="line2d_13">
      <path d="M 397.976449 452.216 
L 397.976449 7.2 
" clip-path="url(#pff8e42e63d)" style="fill: none; stroke: #b0b0b0; stroke-opacity: 0.15; stroke-width: 0.8; stroke-linecap: square"/>
     </g>
     <g id="line2d_14">
      <g>
       <use xlink:href="#m086ec30ad7" x="397.976449" y="452.216" style="stroke: #000000; stroke-width: 0.6"/>
      </g>
     </g>
    </g>
    <g id="xtick_8">
     <g id="line2d_15">
      <path d="M 516.967964 452.216 
L 516.967964 7.2 
" clip-path="url(#pff8e42e63d)" style="fill: none; stroke: #b0b0b0; stroke-opacity: 0.15; stroke-width: 0.8; stroke-linecap: square"/>
     </g>
     <g id="line2d_16">
      <g>
       <use xlink:href="#m086ec30ad7" x="516.967964" y="452.216" style="stroke: #000000; stroke-width: 0.6"/>
      </g>
     </g>
    </g>
   </g>
   <g id="matplotlib.axis_2">
    <g id="ytick_1">
     <g id="line2d_17">
      <path d="M 63.312813 431.988 
L 554.152812 431.988 
" clip-path="url(#pff8e42e63d)" style="fill: none; stroke: #b0b0b0; stroke-opacity: 0.4; stroke-width: 0.8; stroke-linecap: square"/>
     </g>
     <g id="line2d_18">
      <defs>
       <path id="mde16fb992e" d="M 0 0 
L -3.5 0 
" style="stroke: #000000; stroke-width: 0.8"/>
      </defs>
      <g>
       <use xlink:href="#mde16fb992e" x="63.312813" y="431.988" style="stroke: #000000; stroke-width: 0.8"/>
      </g>
     </g>
     <g id="text_3">
      <!-- 0 -->
      <g transform="translate(47.910625 436.277687) scale(0.14 -0.14)">
       <use xlink:href="#CourierNewPSMT-30"/>
      </g>
     </g>
    </g>
    <g id="ytick_2">
     <g id="line2d_19">
      <path d="M 63.312813 378.039981 
L 554.152812 378.039981 
" clip-path="url(#pff8e42e63d)" style="fill: none; stroke: #b0b0b0; stroke-opacity: 0.4; stroke-width: 0.8; stroke-linecap: square"/>
     </g>
     <g id="line2d_20">
      <g>
       <use xlink:href="#mde16fb992e" x="63.312813" y="378.039981" style="stroke: #000000; stroke-width: 0.8"/>
      </g>
     </g>
     <g id="text_4">
      <!-- 1000 -->
      <g transform="translate(22.704063 382.329669) scale(0.14 -0.14)">
       <defs>
        <path id="CourierNewPSMT-31" d="M 2050 3975 
L 2050 263 
L 2950 263 
Q 3044 263 3084 227 
Q 3125 191 3125 131 
Q 3125 75 3084 37 
Q 3044 0 2950 0 
L 888 0 
Q 794 0 753 37 
Q 713 75 713 131 
Q 713 191 753 227 
Q 794 263 888 263 
L 1788 263 
L 1788 3613 
L 931 3344 
Q 869 3325 841 3325 
Q 794 3325 755 3364 
Q 716 3403 716 3456 
Q 716 3503 747 3544 
Q 772 3569 850 3597 
L 2050 3975 
z
" transform="scale(0.015625)"/>
       </defs>
       <use xlink:href="#CourierNewPSMT-31"/>
       <use xlink:href="#CourierNewPSMT-30" transform="translate(60.009766 0)"/>
       <use xlink:href="#CourierNewPSMT-30" transform="translate(120.019531 0)"/>
       <use xlink:href="#CourierNewPSMT-30" transform="translate(180.029297 0)"/>
      </g>
     </g>
    </g>
    <g id="ytick_3">
     <g id="line2d_21">
      <path d="M 63.312813 324.091963 
L 554.152812 324.091963 
" clip-path="url(#pff8e42e63d)" style="fill: none; stroke: #b0b0b0; stroke-opacity: 0.4; stroke-width: 0.8; stroke-linecap: square"/>
     </g>
     <g id="line2d_22">
      <g>
       <use xlink:href="#mde16fb992e" x="63.312813" y="324.091963" style="stroke: #000000; stroke-width: 0.8"/>
      </g>
     </g>
     <g id="text_5">
      <!-- 2000 -->
      <g transform="translate(22.704063 328.38165) scale(0.14 -0.14)">
       <defs>
        <path id="CourierNewPSMT-32" d="M 791 263 
L 2806 263 
L 2806 366 
Q 2806 459 2843 500 
Q 2881 541 2941 541 
Q 2997 541 3034 500 
Q 3072 459 3072 366 
L 3072 0 
L 534 0 
L 534 388 
Q 1334 1106 2091 1850 
Q 2444 2197 2575 2359 
Q 2706 2522 2754 2645 
Q 2803 2769 2803 2894 
Q 2803 3231 2531 3490 
Q 2259 3750 1875 3750 
Q 1531 3750 1265 3553 
Q 1000 3356 922 3066 
Q 903 2991 875 2969 
Q 838 2938 788 2938 
Q 734 2938 698 2973 
Q 663 3009 663 3059 
Q 663 3209 827 3465 
Q 991 3722 1280 3869 
Q 1569 4016 1872 4016 
Q 2363 4016 2716 3675 
Q 3069 3334 3069 2903 
Q 3069 2722 3009 2570 
Q 2950 2419 2808 2239 
Q 2666 2059 2297 1697 
Q 1372 784 791 281 
L 791 263 
z
" transform="scale(0.015625)"/>
       </defs>
       <use xlink:href="#CourierNewPSMT-32"/>
       <use xlink:href="#CourierNewPSMT-30" transform="translate(60.009766 0)"/>
       <use xlink:href="#CourierNewPSMT-30" transform="translate(120.019531 0)"/>
       <use xlink:href="#CourierNewPSMT-30" transform="translate(180.029297 0)"/>
      </g>
     </g>
    </g>
    <g id="ytick_4">
     <g id="line2d_23">
      <path d="M 63.312813 270.143944 
L 554.152812 270.143944 
" clip-path="url(#pff8e42e63d)" style="fill: none; stroke: #b0b0b0; stroke-opacity: 0.4; stroke-width: 0.8; stroke-linecap: square"/>
     </g>
     <g id="line2d_24">
      <g>
       <use xlink:href="#mde16fb992e" x="63.312813" y="270.143944" style="stroke: #000000; stroke-width: 0.8"/>
      </g>
     </g>
     <g id="text_6">
      <!-- 3000 -->
      <g transform="translate(22.704063 274.433632) scale(0.14 -0.14)">
       <use xlink:href="#CourierNewPSMT-33"/>
       <use xlink:href="#CourierNewPSMT-30" transform="translate(60.009766 0)"/>
       <use xlink:href="#CourierNewPSMT-30" transform="translate(120.019531 0)"/>
       <use xlink:href="#CourierNewPSMT-30" transform="translate(180.029297 0)"/>
      </g>
     </g>
    </g>
    <g id="ytick_5">
     <g id="line2d_25">
      <path d="M 63.312813 216.195926 
L 554.152812 216.195926 
" clip-path="url(#pff8e42e63d)" style="fill: none; stroke: #b0b0b0; stroke-opacity: 0.4; stroke-width: 0.8; stroke-linecap: square"/>
     </g>
     <g id="line2d_26">
      <g>
       <use xlink:href="#mde16fb992e" x="63.312813" y="216.195926" style="stroke: #000000; stroke-width: 0.8"/>
      </g>
     </g>
     <g id="text_7">
      <!-- 4000 -->
      <g transform="translate(22.704063 220.485613) scale(0.14 -0.14)">
       <use xlink:href="#CourierNewPSMT-34"/>
       <use xlink:href="#CourierNewPSMT-30" transform="translate(60.009766 0)"/>
       <use xlink:href="#CourierNewPSMT-30" transform="translate(120.019531 0)"/>
       <use xlink:href="#CourierNewPSMT-30" transform="translate(180.029297 0)"/>
      </g>
     </g>
    </g>
    <g id="ytick_6">
     <g id="line2d_27">
      <path d="M 63.312813 162.247907 
L 554.152812 162.247907 
" clip-path="url(#pff8e42e63d)" style="fill: none; stroke: #b0b0b0; stroke-opacity: 0.4; stroke-width: 0.8; stroke-linecap: square"/>
     </g>
     <g id="line2d_28">
      <g>
       <use xlink:href="#mde16fb992e" x="63.312813" y="162.247907" style="stroke: #000000; stroke-width: 0.8"/>
      </g>
     </g>
     <g id="text_8">
      <!-- 5000 -->
      <g transform="translate(22.704063 166.537595) scale(0.14 -0.14)">
       <defs>
        <path id="CourierNewPSMT-35" d="M 1197 3656 
L 1197 2372 
Q 1428 2469 1640 2517 
Q 1853 2566 2044 2566 
Q 2538 2566 2870 2219 
Q 3203 1872 3203 1306 
Q 3203 681 2828 293 
Q 2453 -94 1891 -94 
Q 1519 -94 1175 72 
Q 931 188 731 359 
Q 613 463 613 531 
Q 613 588 650 627 
Q 688 666 738 666 
Q 791 666 850 609 
Q 1322 169 1878 169 
Q 2338 169 2638 483 
Q 2938 797 2938 1319 
Q 2938 1763 2678 2033 
Q 2419 2303 2019 2303 
Q 1609 2303 1200 2088 
Q 1100 2038 1059 2038 
Q 1003 2038 968 2075 
Q 934 2113 934 2181 
L 934 3922 
L 2766 3922 
Q 2859 3922 2900 3884 
Q 2941 3847 2941 3788 
Q 2941 3731 2900 3693 
Q 2859 3656 2766 3656 
L 1197 3656 
z
" transform="scale(0.015625)"/>
       </defs>
       <use xlink:href="#CourierNewPSMT-35"/>
       <use xlink:href="#CourierNewPSMT-30" transform="translate(60.009766 0)"/>
       <use xlink:href="#CourierNewPSMT-30" transform="translate(120.019531 0)"/>
       <use xlink:href="#CourierNewPSMT-30" transform="translate(180.029297 0)"/>
      </g>
     </g>
    </g>
    <g id="ytick_7">
     <g id="line2d_29">
      <path d="M 63.312813 108.299889 
L 554.152812 108.299889 
" clip-path="url(#pff8e42e63d)" style="fill: none; stroke: #b0b0b0; stroke-opacity: 0.4; stroke-width: 0.8; stroke-linecap: square"/>
     </g>
     <g id="line2d_30">
      <g>
       <use xlink:href="#mde16fb992e" x="63.312813" y="108.299889" style="stroke: #000000; stroke-width: 0.8"/>
      </g>
     </g>
     <g id="text_9">
      <!-- 6000 -->
      <g transform="translate(22.704063 112.589576) scale(0.14 -0.14)">
       <defs>
        <path id="CourierNewPSMT-36" d="M 1138 1659 
Q 1381 2019 1639 2191 
Q 1897 2363 2213 2363 
Q 2631 2363 2956 2014 
Q 3281 1666 3281 1153 
Q 3281 684 2984 295 
Q 2688 -94 2166 -94 
Q 1825 -94 1529 115 
Q 1234 325 1066 759 
Q 856 1300 856 1956 
Q 856 2450 1053 2875 
Q 1203 3203 1453 3451 
Q 1703 3700 2036 3858 
Q 2369 4016 2756 4016 
Q 3019 4016 3194 3909 
Q 3269 3863 3269 3784 
Q 3269 3728 3234 3692 
Q 3200 3656 3147 3656 
Q 3106 3656 3050 3688 
Q 2922 3750 2731 3750 
Q 2122 3750 1620 3226 
Q 1119 2703 1119 1981 
Q 1119 1878 1138 1659 
z
M 1197 1225 
Q 1316 656 1570 412 
Q 1825 169 2172 169 
Q 2522 169 2770 442 
Q 3019 716 3019 1153 
Q 3019 1563 2769 1831 
Q 2519 2100 2203 2100 
Q 1900 2100 1619 1841 
Q 1431 1669 1197 1225 
z
" transform="scale(0.015625)"/>
       </defs>
       <use xlink:href="#CourierNewPSMT-36"/>
       <use xlink:href="#CourierNewPSMT-30" transform="translate(60.009766 0)"/>
       <use xlink:href="#CourierNewPSMT-30" transform="translate(120.019531 0)"/>
       <use xlink:href="#CourierNewPSMT-30" transform="translate(180.029297 0)"/>
      </g>
     </g>
    </g>
    <g id="ytick_8">
     <g id="line2d_31">
      <path d="M 63.312813 54.35187 
L 554.152812 54.35187 
" clip-path="url(#pff8e42e63d)" style="fill: none; stroke: #b0b0b0; stroke-opacity: 0.4; stroke-width: 0.8; stroke-linecap: square"/>
     </g>
     <g id="line2d_32">
      <g>
       <use xlink:href="#mde16fb992e" x="63.312813" y="54.35187" style="stroke: #000000; stroke-width: 0.8"/>
      </g>
     </g>
     <g id="text_10">
      <!-- 7000 -->
      <g transform="translate(22.704063 58.641557) scale(0.14 -0.14)">
       <use xlink:href="#CourierNewPSMT-37"/>
       <use xlink:href="#CourierNewPSMT-30" transform="translate(60.009766 0)"/>
       <use xlink:href="#CourierNewPSMT-30" transform="translate(120.019531 0)"/>
       <use xlink:href="#CourierNewPSMT-30" transform="translate(180.029297 0)"/>
      </g>
     </g>
    </g>
    <g id="ytick_9">
     <g id="line2d_33">
      <path d="M 63.312813 442.777604 
L 554.152812 442.777604 
" clip-path="url(#pff8e42e63d)" style="fill: none; stroke: #b0b0b0; stroke-opacity: 0.15; stroke-width: 0.8; stroke-linecap: square"/>
     </g>
     <g id="line2d_34">
      <defs>
       <path id="m3283a043ef" d="M 0 0 
L -2 0 
" style="stroke: #000000; stroke-width: 0.6"/>
      </defs>
      <g>
       <use xlink:href="#m3283a043ef" x="63.312813" y="442.777604" style="stroke: #000000; stroke-width: 0.6"/>
      </g>
     </g>
    </g>
    <g id="ytick_10">
     <g id="line2d_35">
      <path d="M 63.312813 421.198396 
L 554.152812 421.198396 
" clip-path="url(#pff8e42e63d)" style="fill: none; stroke: #b0b0b0; stroke-opacity: 0.15; stroke-width: 0.8; stroke-linecap: square"/>
     </g>
     <g id="line2d_36">
      <g>
       <use xlink:href="#m3283a043ef" x="63.312813" y="421.198396" style="stroke: #000000; stroke-width: 0.6"/>
      </g>
     </g>
    </g>
    <g id="ytick_11">
     <g id="line2d_37">
      <path d="M 63.312813 410.408793 
L 554.152812 410.408793 
" clip-path="url(#pff8e42e63d)" style="fill: none; stroke: #b0b0b0; stroke-opacity: 0.15; stroke-width: 0.8; stroke-linecap: square"/>
     </g>
     <g id="line2d_38">
      <g>
       <use xlink:href="#m3283a043ef" x="63.312813" y="410.408793" style="stroke: #000000; stroke-width: 0.6"/>
      </g>
     </g>
    </g>
    <g id="ytick_12">
     <g id="line2d_39">
      <path d="M 63.312813 399.619189 
L 554.152812 399.619189 
" clip-path="url(#pff8e42e63d)" style="fill: none; stroke: #b0b0b0; stroke-opacity: 0.15; stroke-width: 0.8; stroke-linecap: square"/>
     </g>
     <g id="line2d_40">
      <g>
       <use xlink:href="#m3283a043ef" x="63.312813" y="399.619189" style="stroke: #000000; stroke-width: 0.6"/>
      </g>
     </g>
    </g>
    <g id="ytick_13">
     <g id="line2d_41">
      <path d="M 63.312813 388.829585 
L 554.152812 388.829585 
" clip-path="url(#pff8e42e63d)" style="fill: none; stroke: #b0b0b0; stroke-opacity: 0.15; stroke-width: 0.8; stroke-linecap: square"/>
     </g>
     <g id="line2d_42">
      <g>
       <use xlink:href="#m3283a043ef" x="63.312813" y="388.829585" style="stroke: #000000; stroke-width: 0.6"/>
      </g>
     </g>
    </g>
    <g id="ytick_14">
     <g id="line2d_43">
      <path d="M 63.312813 367.250378 
L 554.152812 367.250378 
" clip-path="url(#pff8e42e63d)" style="fill: none; stroke: #b0b0b0; stroke-opacity: 0.15; stroke-width: 0.8; stroke-linecap: square"/>
     </g>
     <g id="line2d_44">
      <g>
       <use xlink:href="#m3283a043ef" x="63.312813" y="367.250378" style="stroke: #000000; stroke-width: 0.6"/>
      </g>
     </g>
    </g>
    <g id="ytick_15">
     <g id="line2d_45">
      <path d="M 63.312813 356.460774 
L 554.152812 356.460774 
" clip-path="url(#pff8e42e63d)" style="fill: none; stroke: #b0b0b0; stroke-opacity: 0.15; stroke-width: 0.8; stroke-linecap: square"/>
     </g>
     <g id="line2d_46">
      <g>
       <use xlink:href="#m3283a043ef" x="63.312813" y="356.460774" style="stroke: #000000; stroke-width: 0.6"/>
      </g>
     </g>
    </g>
    <g id="ytick_16">
     <g id="line2d_47">
      <path d="M 63.312813 345.67117 
L 554.152812 345.67117 
" clip-path="url(#pff8e42e63d)" style="fill: none; stroke: #b0b0b0; stroke-opacity: 0.15; stroke-width: 0.8; stroke-linecap: square"/>
     </g>
     <g id="line2d_48">
      <g>
       <use xlink:href="#m3283a043ef" x="63.312813" y="345.67117" style="stroke: #000000; stroke-width: 0.6"/>
      </g>
     </g>
    </g>
    <g id="ytick_17">
     <g id="line2d_49">
      <path d="M 63.312813 334.881567 
L 554.152812 334.881567 
" clip-path="url(#pff8e42e63d)" style="fill: none; stroke: #b0b0b0; stroke-opacity: 0.15; stroke-width: 0.8; stroke-linecap: square"/>
     </g>
     <g id="line2d_50">
      <g>
       <use xlink:href="#m3283a043ef" x="63.312813" y="334.881567" style="stroke: #000000; stroke-width: 0.6"/>
      </g>
     </g>
    </g>
    <g id="ytick_18">
     <g id="line2d_51">
      <path d="M 63.312813 313.302359 
L 554.152812 313.302359 
" clip-path="url(#pff8e42e63d)" style="fill: none; stroke: #b0b0b0; stroke-opacity: 0.15; stroke-width: 0.8; stroke-linecap: square"/>
     </g>
     <g id="line2d_52">
      <g>
       <use xlink:href="#m3283a043ef" x="63.312813" y="313.302359" style="stroke: #000000; stroke-width: 0.6"/>
      </g>
     </g>
    </g>
    <g id="ytick_19">
     <g id="line2d_53">
      <path d="M 63.312813 302.512755 
L 554.152812 302.512755 
" clip-path="url(#pff8e42e63d)" style="fill: none; stroke: #b0b0b0; stroke-opacity: 0.15; stroke-width: 0.8; stroke-linecap: square"/>
     </g>
     <g id="line2d_54">
      <g>
       <use xlink:href="#m3283a043ef" x="63.312813" y="302.512755" style="stroke: #000000; stroke-width: 0.6"/>
      </g>
     </g>
    </g>
    <g id="ytick_20">
     <g id="line2d_55">
      <path d="M 63.312813 291.723152 
L 554.152812 291.723152 
" clip-path="url(#pff8e42e63d)" style="fill: none; stroke: #b0b0b0; stroke-opacity: 0.15; stroke-width: 0.8; stroke-linecap: square"/>
     </g>
     <g id="line2d_56">
      <g>
       <use xlink:href="#m3283a043ef" x="63.312813" y="291.723152" style="stroke: #000000; stroke-width: 0.6"/>
      </g>
     </g>
    </g>
    <g id="ytick_21">
     <g id="line2d_57">
      <path d="M 63.312813 280.933548 
L 554.152812 280.933548 
" clip-path="url(#pff8e42e63d)" style="fill: none; stroke: #b0b0b0; stroke-opacity: 0.15; stroke-width: 0.8; stroke-linecap: square"/>
     </g>
     <g id="line2d_58">
      <g>
       <use xlink:href="#m3283a043ef" x="63.312813" y="280.933548" style="stroke: #000000; stroke-width: 0.6"/>
      </g>
     </g>
    </g>
    <g id="ytick_22">
     <g id="line2d_59">
      <path d="M 63.312813 259.354341 
L 554.152812 259.354341 
" clip-path="url(#pff8e42e63d)" style="fill: none; stroke: #b0b0b0; stroke-opacity: 0.15; stroke-width: 0.8; stroke-linecap: square"/>
     </g>
     <g id="line2d_60">
      <g>
       <use xlink:href="#m3283a043ef" x="63.312813" y="259.354341" style="stroke: #000000; stroke-width: 0.6"/>
      </g>
     </g>
    </g>
    <g id="ytick_23">
     <g id="line2d_61">
      <path d="M 63.312813 248.564737 
L 554.152812 248.564737 
" clip-path="url(#pff8e42e63d)" style="fill: none; stroke: #b0b0b0; stroke-opacity: 0.15; stroke-width: 0.8; stroke-linecap: square"/>
     </g>
     <g id="line2d_62">
      <g>
       <use xlink:href="#m3283a043ef" x="63.312813" y="248.564737" style="stroke: #000000; stroke-width: 0.6"/>
      </g>
     </g>
    </g>
    <g id="ytick_24">
     <g id="line2d_63">
      <path d="M 63.312813 237.775133 
L 554.152812 237.775133 
" clip-path="url(#pff8e42e63d)" style="fill: none; stroke: #b0b0b0; stroke-opacity: 0.15; stroke-width: 0.8; stroke-linecap: square"/>
     </g>
     <g id="line2d_64">
      <g>
       <use xlink:href="#m3283a043ef" x="63.312813" y="237.775133" style="stroke: #000000; stroke-width: 0.6"/>
      </g>
     </g>
    </g>
    <g id="ytick_25">
     <g id="line2d_65">
      <path d="M 63.312813 226.985529 
L 554.152812 226.985529 
" clip-path="url(#pff8e42e63d)" style="fill: none; stroke: #b0b0b0; stroke-opacity: 0.15; stroke-width: 0.8; stroke-linecap: square"/>
     </g>
     <g id="line2d_66">
      <g>
       <use xlink:href="#m3283a043ef" x="63.312813" y="226.985529" style="stroke: #000000; stroke-width: 0.6"/>
      </g>
     </g>
    </g>
    <g id="ytick_26">
     <g id="line2d_67">
      <path d="M 63.312813 205.406322 
L 554.152812 205.406322 
" clip-path="url(#pff8e42e63d)" style="fill: none; stroke: #b0b0b0; stroke-opacity: 0.15; stroke-width: 0.8; stroke-linecap: square"/>
     </g>
     <g id="line2d_68">
      <g>
       <use xlink:href="#m3283a043ef" x="63.312813" y="205.406322" style="stroke: #000000; stroke-width: 0.6"/>
      </g>
     </g>
    </g>
    <g id="ytick_27">
     <g id="line2d_69">
      <path d="M 63.312813 194.616718 
L 554.152812 194.616718 
" clip-path="url(#pff8e42e63d)" style="fill: none; stroke: #b0b0b0; stroke-opacity: 0.15; stroke-width: 0.8; stroke-linecap: square"/>
     </g>
     <g id="line2d_70">
      <g>
       <use xlink:href="#m3283a043ef" x="63.312813" y="194.616718" style="stroke: #000000; stroke-width: 0.6"/>
      </g>
     </g>
    </g>
    <g id="ytick_28">
     <g id="line2d_71">
      <path d="M 63.312813 183.827115 
L 554.152812 183.827115 
" clip-path="url(#pff8e42e63d)" style="fill: none; stroke: #b0b0b0; stroke-opacity: 0.15; stroke-width: 0.8; stroke-linecap: square"/>
     </g>
     <g id="line2d_72">
      <g>
       <use xlink:href="#m3283a043ef" x="63.312813" y="183.827115" style="stroke: #000000; stroke-width: 0.6"/>
      </g>
     </g>
    </g>
    <g id="ytick_29">
     <g id="line2d_73">
      <path d="M 63.312813 173.037511 
L 554.152812 173.037511 
" clip-path="url(#pff8e42e63d)" style="fill: none; stroke: #b0b0b0; stroke-opacity: 0.15; stroke-width: 0.8; stroke-linecap: square"/>
     </g>
     <g id="line2d_74">
      <g>
       <use xlink:href="#m3283a043ef" x="63.312813" y="173.037511" style="stroke: #000000; stroke-width: 0.6"/>
      </g>
     </g>
    </g>
    <g id="ytick_30">
     <g id="line2d_75">
      <path d="M 63.312813 151.458303 
L 554.152812 151.458303 
" clip-path="url(#pff8e42e63d)" style="fill: none; stroke: #b0b0b0; stroke-opacity: 0.15; stroke-width: 0.8; stroke-linecap: square"/>
     </g>
     <g id="line2d_76">
      <g>
       <use xlink:href="#m3283a043ef" x="63.312813" y="151.458303" style="stroke: #000000; stroke-width: 0.6"/>
      </g>
     </g>
    </g>
    <g id="ytick_31">
     <g id="line2d_77">
      <path d="M 63.312813 140.6687 
L 554.152812 140.6687 
" clip-path="url(#pff8e42e63d)" style="fill: none; stroke: #b0b0b0; stroke-opacity: 0.15; stroke-width: 0.8; stroke-linecap: square"/>
     </g>
     <g id="line2d_78">
      <g>
       <use xlink:href="#m3283a043ef" x="63.312813" y="140.6687" style="stroke: #000000; stroke-width: 0.6"/>
      </g>
     </g>
    </g>
    <g id="ytick_32">
     <g id="line2d_79">
      <path d="M 63.312813 129.879096 
L 554.152812 129.879096 
" clip-path="url(#pff8e42e63d)" style="fill: none; stroke: #b0b0b0; stroke-opacity: 0.15; stroke-width: 0.8; stroke-linecap: square"/>
     </g>
     <g id="line2d_80">
      <g>
       <use xlink:href="#m3283a043ef" x="63.312813" y="129.879096" style="stroke: #000000; stroke-width: 0.6"/>
      </g>
     </g>
    </g>
    <g id="ytick_33">
     <g id="line2d_81">
      <path d="M 63.312813 119.089492 
L 554.152812 119.089492 
" clip-path="url(#pff8e42e63d)" style="fill: none; stroke: #b0b0b0; stroke-opacity: 0.15; stroke-width: 0.8; stroke-linecap: square"/>
     </g>
     <g id="line2d_82">
      <g>
       <use xlink:href="#m3283a043ef" x="63.312813" y="119.089492" style="stroke: #000000; stroke-width: 0.6"/>
      </g>
     </g>
    </g>
    <g id="ytick_34">
     <g id="line2d_83">
      <path d="M 63.312813 97.510285 
L 554.152812 97.510285 
" clip-path="url(#pff8e42e63d)" style="fill: none; stroke: #b0b0b0; stroke-opacity: 0.15; stroke-width: 0.8; stroke-linecap: square"/>
     </g>
     <g id="line2d_84">
      <g>
       <use xlink:href="#m3283a043ef" x="63.312813" y="97.510285" style="stroke: #000000; stroke-width: 0.6"/>
      </g>
     </g>
    </g>
    <g id="ytick_35">
     <g id="line2d_85">
      <path d="M 63.312813 86.720681 
L 554.152812 86.720681 
" clip-path="url(#pff8e42e63d)" style="fill: none; stroke: #b0b0b0; stroke-opacity: 0.15; stroke-width: 0.8; stroke-linecap: square"/>
     </g>
     <g id="line2d_86">
      <g>
       <use xlink:href="#m3283a043ef" x="63.312813" y="86.720681" style="stroke: #000000; stroke-width: 0.6"/>
      </g>
     </g>
    </g>
    <g id="ytick_36">
     <g id="line2d_87">
      <path d="M 63.312813 75.931077 
L 554.152812 75.931077 
" clip-path="url(#pff8e42e63d)" style="fill: none; stroke: #b0b0b0; stroke-opacity: 0.15; stroke-width: 0.8; stroke-linecap: square"/>
     </g>
     <g id="line2d_88">
      <g>
       <use xlink:href="#m3283a043ef" x="63.312813" y="75.931077" style="stroke: #000000; stroke-width: 0.6"/>
      </g>
     </g>
    </g>
    <g id="ytick_37">
     <g id="line2d_89">
      <path d="M 63.312813 65.141474 
L 554.152812 65.141474 
" clip-path="url(#pff8e42e63d)" style="fill: none; stroke: #b0b0b0; stroke-opacity: 0.15; stroke-width: 0.8; stroke-linecap: square"/>
     </g>
     <g id="line2d_90">
      <g>
       <use xlink:href="#m3283a043ef" x="63.312813" y="65.141474" style="stroke: #000000; stroke-width: 0.6"/>
      </g>
     </g>
    </g>
    <g id="ytick_38">
     <g id="line2d_91">
      <path d="M 63.312813 43.562266 
L 554.152812 43.562266 
" clip-path="url(#pff8e42e63d)" style="fill: none; stroke: #b0b0b0; stroke-opacity: 0.15; stroke-width: 0.8; stroke-linecap: square"/>
     </g>
     <g id="line2d_92">
      <g>
       <use xlink:href="#m3283a043ef" x="63.312813" y="43.562266" style="stroke: #000000; stroke-width: 0.6"/>
      </g>
     </g>
    </g>
    <g id="ytick_39">
     <g id="line2d_93">
      <path d="M 63.312813 32.772663 
L 554.152812 32.772663 
" clip-path="url(#pff8e42e63d)" style="fill: none; stroke: #b0b0b0; stroke-opacity: 0.15; stroke-width: 0.8; stroke-linecap: square"/>
     </g>
     <g id="line2d_94">
      <g>
       <use xlink:href="#m3283a043ef" x="63.312813" y="32.772663" style="stroke: #000000; stroke-width: 0.6"/>
      </g>
     </g>
    </g>
    <g id="ytick_40">
     <g id="line2d_95">
      <path d="M 63.312813 21.983059 
L 554.152812 21.983059 
" clip-path="url(#pff8e42e63d)" style="fill: none; stroke: #b0b0b0; stroke-opacity: 0.15; stroke-width: 0.8; stroke-linecap: square"/>
     </g>
     <g id="line2d_96">
      <g>
       <use xlink:href="#m3283a043ef" x="63.312813" y="21.983059" style="stroke: #000000; stroke-width: 0.6"/>
      </g>
     </g>
    </g>
    <g id="ytick_41">
     <g id="line2d_97">
      <path d="M 63.312813 11.193455 
L 554.152812 11.193455 
" clip-path="url(#pff8e42e63d)" style="fill: none; stroke: #b0b0b0; stroke-opacity: 0.15; stroke-width: 0.8; stroke-linecap: square"/>
     </g>
     <g id="line2d_98">
      <g>
       <use xlink:href="#m3283a043ef" x="63.312813" y="11.193455" style="stroke: #000000; stroke-width: 0.6"/>
      </g>
     </g>
    </g>
    <g id="text_11">
     <!-- Optimal trading profit, EUR -->
     <g transform="translate(16.065938 343.137531) rotate(-90) scale(0.14 -0.14)">
      <defs>
       <path id="CourierNewPSMT-4f" d="M 3525 1819 
Q 3525 1294 3312 845 
Q 3100 397 2726 147 
Q 2353 -103 1925 -103 
Q 1291 -103 808 436 
Q 325 975 325 1819 
Q 325 2666 808 3203 
Q 1291 3741 1925 3741 
Q 2353 3741 2725 3491 
Q 3097 3241 3311 2794 
Q 3525 2347 3525 1819 
z
M 3259 1819 
Q 3259 2459 2887 2968 
Q 2516 3478 1925 3478 
Q 1372 3478 980 2992 
Q 588 2506 588 1819 
Q 588 1088 998 623 
Q 1409 159 1925 159 
Q 2516 159 2887 667 
Q 3259 1175 3259 1819 
z
" transform="scale(0.015625)"/>
       <path id="CourierNewPSMT-70" d="M 931 2706 
L 931 2228 
Q 1166 2513 1434 2656 
Q 1703 2800 2069 2800 
Q 2456 2800 2784 2619 
Q 3113 2438 3292 2114 
Q 3472 1791 3472 1434 
Q 3472 869 3067 467 
Q 2663 66 2072 66 
Q 1369 66 931 638 
L 931 -944 
L 1569 -944 
Q 1663 -944 1703 -980 
Q 1744 -1016 1744 -1075 
Q 1744 -1131 1703 -1168 
Q 1663 -1206 1569 -1206 
L 316 -1206 
Q 222 -1206 181 -1170 
Q 141 -1134 141 -1075 
Q 141 -1016 181 -980 
Q 222 -944 316 -944 
L 669 -944 
L 669 2441 
L 316 2441 
Q 222 2441 181 2478 
Q 141 2516 141 2575 
Q 141 2631 181 2668 
Q 222 2706 316 2706 
L 931 2706 
z
M 3206 1434 
Q 3206 1888 2876 2211 
Q 2547 2534 2072 2534 
Q 1594 2534 1262 2209 
Q 931 1884 931 1434 
Q 931 981 1262 656 
Q 1594 331 2072 331 
Q 2544 331 2875 654 
Q 3206 978 3206 1434 
z
" transform="scale(0.015625)"/>
       <path id="CourierNewPSMT-74" d="M 1381 2706 
L 2806 2706 
Q 2900 2706 2940 2668 
Q 2981 2631 2981 2572 
Q 2981 2516 2940 2478 
Q 2900 2441 2806 2441 
L 1381 2441 
L 1381 694 
Q 1381 466 1564 312 
Q 1747 159 2100 159 
Q 2366 159 2675 239 
Q 2984 319 3156 419 
Q 3219 459 3259 459 
Q 3309 459 3346 420 
Q 3384 381 3384 328 
Q 3384 281 3344 241 
Q 3244 138 2858 17 
Q 2472 -103 2119 -103 
Q 1659 -103 1387 112 
Q 1116 328 1116 694 
L 1116 2441 
L 631 2441 
Q 538 2441 497 2478 
Q 456 2516 456 2575 
Q 456 2631 497 2668 
Q 538 2706 631 2706 
L 1116 2706 
L 1116 3481 
Q 1116 3575 1153 3615 
Q 1191 3656 1247 3656 
Q 1306 3656 1343 3615 
Q 1381 3575 1381 3481 
L 1381 2706 
z
" transform="scale(0.015625)"/>
       <path id="CourierNewPSMT-69" d="M 2050 4053 
L 2050 3375 
L 1663 3375 
L 1663 4053 
L 2050 4053 
z
M 2059 2706 
L 2059 263 
L 3091 263 
Q 3188 263 3228 227 
Q 3269 191 3269 131 
Q 3269 75 3228 37 
Q 3188 0 3091 0 
L 766 0 
Q 672 0 631 37 
Q 591 75 591 131 
Q 591 191 631 227 
Q 672 263 766 263 
L 1797 263 
L 1797 2441 
L 1031 2441 
Q 938 2441 895 2478 
Q 853 2516 853 2572 
Q 853 2631 893 2668 
Q 934 2706 1031 2706 
L 2059 2706 
z
" transform="scale(0.015625)"/>
       <path id="CourierNewPSMT-20" transform="scale(0.015625)"/>
       <path id="CourierNewPSMT-64" d="M 3206 3922 
L 3206 263 
L 3556 263 
Q 3653 263 3693 227 
Q 3734 191 3734 131 
Q 3734 75 3693 37 
Q 3653 0 3556 0 
L 2941 0 
L 2941 522 
Q 2484 -103 1781 -103 
Q 1425 -103 1098 86 
Q 772 275 583 625 
Q 394 975 394 1347 
Q 394 1722 583 2070 
Q 772 2419 1098 2609 
Q 1425 2800 1784 2800 
Q 2472 2800 2941 2175 
L 2941 3656 
L 2591 3656 
Q 2494 3656 2453 3693 
Q 2413 3731 2413 3791 
Q 2413 3847 2453 3884 
Q 2494 3922 2591 3922 
L 3206 3922 
z
M 2941 1347 
Q 2941 1847 2603 2190 
Q 2266 2534 1800 2534 
Q 1331 2534 993 2190 
Q 656 1847 656 1347 
Q 656 850 993 504 
Q 1331 159 1800 159 
Q 2266 159 2603 504 
Q 2941 850 2941 1347 
z
" transform="scale(0.015625)"/>
       <path id="CourierNewPSMT-67" d="M 2803 2225 
L 2803 2706 
L 3419 2706 
Q 3513 2706 3553 2668 
Q 3594 2631 3594 2572 
Q 3594 2516 3553 2478 
Q 3513 2441 3419 2441 
L 3066 2441 
L 3066 -181 
Q 3066 -444 2953 -650 
Q 2878 -788 2703 -934 
Q 2528 -1081 2384 -1143 
Q 2241 -1206 2000 -1206 
L 1256 -1206 
Q 1163 -1206 1122 -1170 
Q 1081 -1134 1081 -1075 
Q 1081 -1016 1122 -978 
Q 1163 -941 1256 -941 
L 2009 -944 
Q 2241 -944 2427 -825 
Q 2613 -706 2734 -478 
Q 2803 -347 2803 -144 
L 2803 644 
Q 2381 66 1716 66 
Q 1175 66 783 467 
Q 391 869 391 1434 
Q 391 2000 783 2400 
Q 1175 2800 1716 2800 
Q 2381 2800 2803 2225 
z
M 2803 1434 
Q 2803 1897 2486 2215 
Q 2169 2534 1728 2534 
Q 1288 2534 972 2214 
Q 656 1894 656 1434 
Q 656 972 972 651 
Q 1288 331 1728 331 
Q 2169 331 2486 651 
Q 2803 972 2803 1434 
z
" transform="scale(0.015625)"/>
       <path id="CourierNewPSMT-66" d="M 1747 2441 
L 1747 263 
L 2900 263 
Q 2994 263 3034 227 
Q 3075 191 3075 131 
Q 3075 75 3034 37 
Q 2994 0 2900 0 
L 847 0 
Q 753 0 712 37 
Q 672 75 672 131 
Q 672 191 712 227 
Q 753 263 847 263 
L 1481 263 
L 1481 2441 
L 913 2441 
Q 819 2441 778 2478 
Q 738 2516 738 2575 
Q 738 2631 778 2668 
Q 819 2706 913 2706 
L 1481 2706 
L 1481 3103 
Q 1481 3434 1750 3678 
Q 2019 3922 2463 3922 
Q 2834 3922 3256 3853 
Q 3416 3828 3448 3793 
Q 3481 3759 3481 3703 
Q 3481 3647 3443 3611 
Q 3406 3575 3344 3575 
Q 3319 3575 3259 3584 
Q 2788 3656 2463 3656 
Q 2119 3656 1933 3487 
Q 1747 3319 1747 3103 
L 1747 2706 
L 2975 2706 
Q 3069 2706 3109 2668 
Q 3150 2631 3150 2572 
Q 3150 2516 3109 2478 
Q 3069 2441 2975 2441 
L 1747 2441 
z
" transform="scale(0.015625)"/>
       <path id="CourierNewPSMT-2c" d="M 1400 944 
L 2253 944 
L 1325 -781 
Q 1241 -938 1122 -938 
Q 1044 -938 989 -883 
Q 934 -828 934 -750 
Q 934 -719 944 -681 
L 1400 944 
z
" transform="scale(0.015625)"/>
       <path id="CourierNewPSMT-45" d="M 1066 1766 
L 1066 263 
L 3084 263 
L 3084 1038 
Q 3084 1131 3120 1172 
Q 3156 1213 3216 1213 
Q 3275 1213 3311 1172 
Q 3347 1131 3347 1038 
L 3347 0 
L 450 0 
Q 356 0 315 37 
Q 275 75 275 131 
Q 275 191 315 227 
Q 356 263 450 263 
L 803 263 
L 803 3394 
L 450 3394 
Q 356 3394 315 3430 
Q 275 3466 275 3525 
Q 275 3584 315 3620 
Q 356 3656 450 3656 
L 3209 3656 
L 3209 2753 
Q 3209 2659 3173 2618 
Q 3138 2578 3078 2578 
Q 3019 2578 2983 2618 
Q 2947 2659 2947 2753 
L 2947 3394 
L 1066 3394 
L 1066 2028 
L 2006 2028 
L 2006 2325 
Q 2006 2419 2043 2459 
Q 2081 2500 2141 2500 
Q 2197 2500 2234 2459 
Q 2272 2419 2272 2325 
L 2272 1469 
Q 2272 1375 2234 1334 
Q 2197 1294 2141 1294 
Q 2081 1294 2043 1334 
Q 2006 1375 2006 1469 
L 2006 1766 
L 1066 1766 
z
" transform="scale(0.015625)"/>
       <path id="CourierNewPSMT-55" d="M 3191 3394 
L 3191 1200 
Q 3191 647 2822 272 
Q 2453 -103 1931 -103 
Q 1581 -103 1309 50 
Q 1038 203 847 514 
Q 656 825 656 1200 
L 656 3394 
L 434 3394 
Q 341 3394 300 3430 
Q 259 3466 259 3525 
Q 259 3584 303 3625 
Q 341 3656 434 3656 
L 1403 3656 
Q 1497 3656 1537 3620 
Q 1578 3584 1578 3525 
Q 1578 3466 1537 3430 
Q 1497 3394 1403 3394 
L 919 3394 
L 919 1200 
Q 919 766 1216 462 
Q 1513 159 1919 159 
Q 2178 159 2392 278 
Q 2606 397 2767 644 
Q 2928 891 2928 1200 
L 2928 3394 
L 2444 3394 
Q 2350 3394 2309 3430 
Q 2269 3466 2269 3525 
Q 2269 3584 2309 3620 
Q 2350 3656 2444 3656 
L 3413 3656 
Q 3506 3656 3547 3620 
Q 3588 3584 3588 3525 
Q 3588 3466 3547 3430 
Q 3506 3394 3413 3394 
L 3191 3394 
z
" transform="scale(0.015625)"/>
       <path id="CourierNewPSMT-52" d="M 1066 1631 
L 1066 263 
L 1550 263 
Q 1647 263 1687 227 
Q 1728 191 1728 131 
Q 1728 75 1687 37 
Q 1647 0 1550 0 
L 450 0 
Q 356 0 315 37 
Q 275 75 275 131 
Q 275 191 315 227 
Q 356 263 450 263 
L 803 263 
L 803 3394 
L 450 3394 
Q 356 3394 315 3430 
Q 275 3466 275 3525 
Q 275 3584 315 3620 
Q 356 3656 450 3656 
L 2038 3656 
Q 2528 3656 2864 3345 
Q 3200 3034 3200 2644 
Q 3200 2363 2992 2114 
Q 2784 1866 2297 1700 
Q 2578 1506 2778 1262 
Q 2978 1019 3419 263 
L 3619 263 
Q 3713 263 3753 227 
Q 3794 191 3794 131 
Q 3794 75 3753 37 
Q 3713 0 3619 0 
L 3269 0 
Q 2781 872 2514 1169 
Q 2247 1466 1900 1631 
L 1066 1631 
z
M 1066 1894 
L 1781 1894 
Q 2125 1894 2404 2019 
Q 2684 2144 2811 2312 
Q 2938 2481 2938 2656 
Q 2938 2919 2673 3156 
Q 2409 3394 2031 3394 
L 1066 3394 
L 1066 1894 
z
" transform="scale(0.015625)"/>
      </defs>
      <use xlink:href="#CourierNewPSMT-4f"/>
      <use xlink:href="#CourierNewPSMT-70" transform="translate(60.009766 0)"/>
      <use xlink:href="#CourierNewPSMT-74" transform="translate(120.019531 0)"/>
      <use xlink:href="#CourierNewPSMT-69" transform="translate(180.029297 0)"/>
      <use xlink:href="#CourierNewPSMT-6d" transform="translate(240.039062 0)"/>
      <use xlink:href="#CourierNewPSMT-61" transform="translate(300.048828 0)"/>
      <use xlink:href="#CourierNewPSMT-6c" transform="translate(360.058594 0)"/>
      <use xlink:href="#CourierNewPSMT-20" transform="translate(420.068359 0)"/>
      <use xlink:href="#CourierNewPSMT-74" transform="translate(480.078125 0)"/>
      <use xlink:href="#CourierNewPSMT-72" transform="translate(540.087891 0)"/>
      <use xlink:href="#CourierNewPSMT-61" transform="translate(600.097656 0)"/>
      <use xlink:href="#CourierNewPSMT-64" transform="translate(660.107422 0)"/>
      <use xlink:href="#CourierNewPSMT-69" transform="translate(720.117188 0)"/>
      <use xlink:href="#CourierNewPSMT-6e" transform="translate(780.126953 0)"/>
      <use xlink:href="#CourierNewPSMT-67" transform="translate(840.136719 0)"/>
      <use xlink:href="#CourierNewPSMT-20" transform="translate(900.146484 0)"/>
      <use xlink:href="#CourierNewPSMT-70" transform="translate(960.15625 0)"/>
      <use xlink:href="#CourierNewPSMT-72" transform="translate(1020.166016 0)"/>
      <use xlink:href="#CourierNewPSMT-6f" transform="translate(1080.175781 0)"/>
      <use xlink:href="#CourierNewPSMT-66" transform="translate(1140.185547 0)"/>
      <use xlink:href="#CourierNewPSMT-69" transform="translate(1200.195312 0)"/>
      <use xlink:href="#CourierNewPSMT-74" transform="translate(1260.205078 0)"/>
      <use xlink:href="#CourierNewPSMT-2c" transform="translate(1320.214844 0)"/>
      <use xlink:href="#CourierNewPSMT-20" transform="translate(1380.224609 0)"/>
      <use xlink:href="#CourierNewPSMT-45" transform="translate(1440.234375 0)"/>
      <use xlink:href="#CourierNewPSMT-55" transform="translate(1500.244141 0)"/>
      <use xlink:href="#CourierNewPSMT-52" transform="translate(1560.253906 0)"/>
     </g>
    </g>
   </g>
   <g id="LineCollection_1">
    <path d="M 122.80857 370.063012 
L 197.178267 370.063012 
" clip-path="url(#pff8e42e63d)" style="fill: none; stroke: #000000; stroke-width: 1.2"/>
    <path d="M 420.287358 27.428 
L 494.657055 27.428 
" clip-path="url(#pff8e42e63d)" style="fill: none; stroke: #000000; stroke-width: 1.2"/>
   </g>
   <g id="LineCollection_2">
    <path d="M 122.80857 431.988 
L 197.178267 431.988 
" clip-path="url(#pff8e42e63d)" style="fill: none; stroke: #000000; stroke-width: 1.2"/>
    <path d="M 420.287358 431.988 
L 494.657055 431.988 
" clip-path="url(#pff8e42e63d)" style="fill: none; stroke: #000000; stroke-width: 1.2"/>
   </g>
   <g id="LineCollection_3">
    <path d="M 159.993419 431.988 
L 159.993419 370.063012 
" clip-path="url(#pff8e42e63d)" style="fill: none; stroke: #000000; stroke-width: 1.2"/>
    <path d="M 457.472206 431.988 
L 457.472206 27.428 
" clip-path="url(#pff8e42e63d)" style="fill: none; stroke: #000000; stroke-width: 1.2"/>
   </g>
   <g id="LineCollection_4">
    <path d="M 122.80857 428.399507 
L 197.178267 428.399507 
" clip-path="url(#pff8e42e63d)" style="fill: none; stroke: #000000; stroke-width: 1.2"/>
    <path d="M 420.287358 427.002254 
L 494.657055 427.002254 
" clip-path="url(#pff8e42e63d)" style="fill: none; stroke: #000000; stroke-width: 1.2"/>
   </g>
   <g id="line2d_99">
    <path d="M 63.312813 431.988 
L 554.152812 431.988 
" clip-path="url(#pff8e42e63d)" style="fill: none; stroke-dasharray: 3.33,1.44; stroke-dashoffset: 0; stroke: #808080; stroke-width: 0.9"/>
   </g>
   <g id="patch_3">
    <path d="M 63.312813 452.216 
L 63.312813 7.2 
" style="fill: none; stroke: #000000; stroke-width: 0.8; stroke-linejoin: miter; stroke-linecap: square"/>
   </g>
   <g id="patch_4">
    <path d="M 554.152812 452.216 
L 554.152812 7.2 
" style="fill: none; stroke: #000000; stroke-width: 0.8; stroke-linejoin: miter; stroke-linecap: square"/>
   </g>
   <g id="patch_5">
    <path d="M 63.312813 452.216 
L 554.152812 452.216 
" style="fill: none; stroke: #000000; stroke-width: 0.8; stroke-linejoin: miter; stroke-linecap: square"/>
   </g>
   <g id="patch_6">
    <path d="M 63.312813 7.2 
L 554.152812 7.2 
" style="fill: none; stroke: #000000; stroke-width: 0.8; stroke-linejoin: miter; stroke-linecap: square"/>
   </g>
   <g id="PathCollection_1">
    <defs>
     <path id="m0df6b6e71c" d="M 0 3.872983 
C 1.027127 3.872983 2.012324 3.464901 2.738613 2.738613 
C 3.464901 2.012324 3.872983 1.027127 3.872983 0 
C 3.872983 -1.027127 3.464901 -2.012324 2.738613 -2.738613 
C 2.012324 -3.464901 1.027127 -3.872983 0 -3.872983 
C -1.027127 -3.872983 -2.012324 -3.464901 -2.738613 -2.738613 
C -3.464901 -2.012324 -3.872983 -1.027127 -3.872983 0 
C -3.872983 1.027127 -3.464901 2.012324 -2.738613 2.738613 
C -2.012324 3.464901 -1.027127 3.872983 0 3.872983 
z
" style="stroke: #000000; stroke-width: 0.7"/>
    </defs>
    <g clip-path="url(#pff8e42e63d)">
     <use xlink:href="#m0df6b6e71c" x="159.993419" y="428.399507" style="fill: #2196f3; stroke: #000000; stroke-width: 0.7"/>
    </g>
   </g>
   <g id="PathCollection_2">
    <defs>
     <path id="m02ef4bcd33" d="M 0 3.872983 
C 1.027127 3.872983 2.012324 3.464901 2.738613 2.738613 
C 3.464901 2.012324 3.872983 1.027127 3.872983 0 
C 3.872983 -1.027127 3.464901 -2.012324 2.738613 -2.738613 
C 2.012324 -3.464901 1.027127 -3.872983 0 -3.872983 
C -1.027127 -3.872983 -2.012324 -3.464901 -2.738613 -2.738613 
C -3.464901 -2.012324 -3.872983 -1.027127 -3.872983 0 
C -3.872983 1.027127 -3.464901 2.012324 -2.738613 2.738613 
C -2.012324 3.464901 -1.027127 3.872983 0 3.872983 
z
" style="stroke: #000000; stroke-width: 0.7"/>
    </defs>
    <g clip-path="url(#pff8e42e63d)">
     <use xlink:href="#m02ef4bcd33" x="457.472206" y="427.002254" style="fill: #f44336; stroke: #000000; stroke-width: 0.7"/>
    </g>
   </g>
   <g id="PathCollection_3">
    <defs>
     <path id="ma00f5eac31" d="M -1.936492 3.872983 
L 0 1.936492 
L 1.936492 3.872983 
L 3.872983 1.936492 
L 1.936492 0 
L 3.872983 -1.936492 
L 1.936492 -3.872983 
L 0 -1.936492 
L -1.936492 -3.872983 
L -3.872983 -1.936492 
L -1.936492 0 
L -3.872983 1.936492 
z
" style="stroke: #000000; stroke-width: 0.7"/>
    </defs>
    <g clip-path="url(#pff8e42e63d)">
     <use xlink:href="#ma00f5eac31" x="159.993419" y="427.614308" style="fill: #2196f3; stroke: #000000; stroke-width: 0.7"/>
    </g>
   </g>
   <g id="PathCollection_4">
    <defs>
     <path id="mbe81f66bcc" d="M -1.936492 3.872983 
L 0 1.936492 
L 1.936492 3.872983 
L 3.872983 1.936492 
L 1.936492 0 
L 3.872983 -1.936492 
L 1.936492 -3.872983 
L 0 -1.936492 
L -1.936492 -3.872983 
L -3.872983 -1.936492 
L -1.936492 0 
L -3.872983 1.936492 
z
" style="stroke: #000000; stroke-width: 0.7"/>
    </defs>
    <g clip-path="url(#pff8e42e63d)">
     <use xlink:href="#mbe81f66bcc" x="457.472206" y="421.0274" style="fill: #f44336; stroke: #000000; stroke-width: 0.7"/>
    </g>
   </g>
   <g id="legend_1">
    <g id="patch_7">
     <path d="M 71.012813 92.364063 
L 277.8575 92.364063 
Q 280.0575 92.364063 280.0575 90.164063 
L 280.0575 14.9 
Q 280.0575 12.7 277.8575 12.7 
L 71.012813 12.7 
Q 68.812813 12.7 68.812813 14.9 
L 68.812813 90.164063 
Q 68.812813 92.364063 71.012813 92.364063 
z
" style="fill: #ffffff; opacity: 0.8; stroke: #cccccc; stroke-linejoin: miter"/>
    </g>
    <g id="PathCollection_5">
     <g>
      <use xlink:href="#m0df6b6e71c" x="84.212813" y="21.9125" style="fill: #2196f3; stroke: #000000; stroke-width: 0.7"/>
     </g>
    </g>
    <g id="text_12">
     <!-- Normal median: 66.5 EUR -->
     <g transform="translate(104.012813 24.8) scale(0.11 -0.11)">
      <defs>
       <path id="CourierNewPSMT-65" d="M 3341 1291 
L 666 1291 
Q 734 781 1092 470 
Q 1450 159 1978 159 
Q 2272 159 2594 256 
Q 2916 353 3119 513 
Q 3178 559 3222 559 
Q 3272 559 3309 520 
Q 3347 481 3347 428 
Q 3347 375 3297 325 
Q 3147 169 2764 33 
Q 2381 -103 1978 -103 
Q 1303 -103 851 339 
Q 400 781 400 1409 
Q 400 1981 823 2390 
Q 1247 2800 1872 2800 
Q 2516 2800 2931 2379 
Q 3347 1959 3341 1291 
z
M 3075 1556 
Q 2997 1991 2664 2262 
Q 2331 2534 1872 2534 
Q 1413 2534 1081 2265 
Q 750 1997 669 1556 
L 3075 1556 
z
" transform="scale(0.015625)"/>
       <path id="CourierNewPSMT-3a" d="M 1866 2706 
L 1978 2706 
Q 2153 2706 2278 2581 
Q 2403 2456 2403 2284 
Q 2403 2100 2276 1978 
Q 2150 1856 1978 1856 
L 1866 1856 
Q 1691 1856 1566 1981 
Q 1441 2106 1441 2278 
Q 1441 2463 1567 2584 
Q 1694 2706 1866 2706 
z
M 1866 753 
L 1978 753 
Q 2153 753 2278 629 
Q 2403 506 2403 331 
Q 2403 150 2276 28 
Q 2150 -94 1978 -94 
L 1866 -94 
Q 1691 -94 1566 29 
Q 1441 153 1441 328 
Q 1441 509 1567 631 
Q 1694 753 1866 753 
z
" transform="scale(0.015625)"/>
       <path id="CourierNewPSMT-2e" d="M 1866 753 
L 1978 753 
Q 2153 753 2278 629 
Q 2403 506 2403 331 
Q 2403 150 2276 28 
Q 2150 -94 1978 -94 
L 1866 -94 
Q 1691 -94 1566 29 
Q 1441 153 1441 328 
Q 1441 509 1567 631 
Q 1694 753 1866 753 
z
" transform="scale(0.015625)"/>
      </defs>
      <use xlink:href="#CourierNewPSMT-4e"/>
      <use xlink:href="#CourierNewPSMT-6f" transform="translate(60.009766 0)"/>
      <use xlink:href="#CourierNewPSMT-72" transform="translate(120.019531 0)"/>
      <use xlink:href="#CourierNewPSMT-6d" transform="translate(180.029297 0)"/>
      <use xlink:href="#CourierNewPSMT-61" transform="translate(240.039062 0)"/>
      <use xlink:href="#CourierNewPSMT-6c" transform="translate(300.048828 0)"/>
      <use xlink:href="#CourierNewPSMT-20" transform="translate(360.058594 0)"/>
      <use xlink:href="#CourierNewPSMT-6d" transform="translate(420.068359 0)"/>
      <use xlink:href="#CourierNewPSMT-65" transform="translate(480.078125 0)"/>
      <use xlink:href="#CourierNewPSMT-64" transform="translate(540.087891 0)"/>
      <use xlink:href="#CourierNewPSMT-69" transform="translate(600.097656 0)"/>
      <use xlink:href="#CourierNewPSMT-61" transform="translate(660.107422 0)"/>
      <use xlink:href="#CourierNewPSMT-6e" transform="translate(720.117188 0)"/>
      <use xlink:href="#CourierNewPSMT-3a" transform="translate(780.126953 0)"/>
      <use xlink:href="#CourierNewPSMT-20" transform="translate(840.136719 0)"/>
      <use xlink:href="#CourierNewPSMT-36" transform="translate(900.146484 0)"/>
      <use xlink:href="#CourierNewPSMT-36" transform="translate(960.15625 0)"/>
      <use xlink:href="#CourierNewPSMT-2e" transform="translate(1020.166016 0)"/>
      <use xlink:href="#CourierNewPSMT-35" transform="translate(1080.175781 0)"/>
      <use xlink:href="#CourierNewPSMT-20" transform="translate(1140.185547 0)"/>
      <use xlink:href="#CourierNewPSMT-45" transform="translate(1200.195312 0)"/>
      <use xlink:href="#CourierNewPSMT-55" transform="translate(1260.205078 0)"/>
      <use xlink:href="#CourierNewPSMT-52" transform="translate(1320.214844 0)"/>
     </g>
    </g>
    <g id="PathCollection_6">
     <g>
      <use xlink:href="#m02ef4bcd33" x="84.212813" y="37.185313" style="fill: #f44336; stroke: #000000; stroke-width: 0.7"/>
     </g>
    </g>
    <g id="text_13">
     <!-- Anomalous median: 92.4 EUR -->
     <g transform="translate(104.012813 40.072813) scale(0.11 -0.11)">
      <defs>
       <path id="CourierNewPSMT-39" d="M 2997 2219 
Q 2794 1859 2514 1678 
Q 2234 1497 1941 1497 
Q 1669 1497 1414 1653 
Q 1159 1809 1009 2111 
Q 859 2413 859 2744 
Q 859 3225 1157 3620 
Q 1456 4016 1956 4016 
Q 2313 4016 2606 3794 
Q 2900 3572 3063 3150 
Q 3272 2609 3272 1894 
Q 3272 1338 3094 969 
Q 2975 719 2745 484 
Q 2516 250 2228 103 
Q 1834 -94 1409 -94 
Q 1128 -94 950 13 
Q 869 63 869 138 
Q 869 191 906 227 
Q 944 263 997 263 
Q 1034 263 1106 228 
Q 1228 169 1388 169 
Q 2053 169 2531 648 
Q 3009 1128 3009 1850 
Q 3009 1981 2997 2219 
z
M 2947 2656 
Q 2781 3291 2536 3520 
Q 2291 3750 1963 3750 
Q 1628 3750 1375 3469 
Q 1122 3188 1122 2747 
Q 1122 2319 1375 2039 
Q 1628 1759 1947 1759 
Q 2131 1759 2311 1859 
Q 2491 1959 2650 2159 
Q 2753 2294 2947 2656 
z
" transform="scale(0.015625)"/>
      </defs>
      <use xlink:href="#CourierNewPSMT-41"/>
      <use xlink:href="#CourierNewPSMT-6e" transform="translate(60.009766 0)"/>
      <use xlink:href="#CourierNewPSMT-6f" transform="translate(120.019531 0)"/>
      <use xlink:href="#CourierNewPSMT-6d" transform="translate(180.029297 0)"/>
      <use xlink:href="#CourierNewPSMT-61" transform="translate(240.039062 0)"/>
      <use xlink:href="#CourierNewPSMT-6c" transform="translate(300.048828 0)"/>
      <use xlink:href="#CourierNewPSMT-6f" transform="translate(360.058594 0)"/>
      <use xlink:href="#CourierNewPSMT-75" transform="translate(420.068359 0)"/>
      <use xlink:href="#CourierNewPSMT-73" transform="translate(480.078125 0)"/>
      <use xlink:href="#CourierNewPSMT-20" transform="translate(540.087891 0)"/>
      <use xlink:href="#CourierNewPSMT-6d" transform="translate(600.097656 0)"/>
      <use xlink:href="#CourierNewPSMT-65" transform="translate(660.107422 0)"/>
      <use xlink:href="#CourierNewPSMT-64" transform="translate(720.117188 0)"/>
      <use xlink:href="#CourierNewPSMT-69" transform="translate(780.126953 0)"/>
      <use xlink:href="#CourierNewPSMT-61" transform="translate(840.136719 0)"/>
      <use xlink:href="#CourierNewPSMT-6e" transform="translate(900.146484 0)"/>
      <use xlink:href="#CourierNewPSMT-3a" transform="translate(960.15625 0)"/>
      <use xlink:href="#CourierNewPSMT-20" transform="translate(1020.166016 0)"/>
      <use xlink:href="#CourierNewPSMT-39" transform="translate(1080.175781 0)"/>
      <use xlink:href="#CourierNewPSMT-32" transform="translate(1140.185547 0)"/>
      <use xlink:href="#CourierNewPSMT-2e" transform="translate(1200.195312 0)"/>
      <use xlink:href="#CourierNewPSMT-34" transform="translate(1260.205078 0)"/>
      <use xlink:href="#CourierNewPSMT-20" transform="translate(1320.214844 0)"/>
      <use xlink:href="#CourierNewPSMT-45" transform="translate(1380.224609 0)"/>
      <use xlink:href="#CourierNewPSMT-55" transform="translate(1440.234375 0)"/>
      <use xlink:href="#CourierNewPSMT-52" transform="translate(1500.244141 0)"/>
     </g>
    </g>
    <g id="PathCollection_7">
     <g>
      <use xlink:href="#ma00f5eac31" x="84.212813" y="52.458125" style="fill: #2196f3; stroke: #000000; stroke-width: 0.7"/>
     </g>
    </g>
    <g id="text_14">
     <!-- Normal mean: 81.1 EUR -->
     <g transform="translate(104.012813 55.345625) scale(0.11 -0.11)">
      <use xlink:href="#CourierNewPSMT-4e"/>
      <use xlink:href="#CourierNewPSMT-6f" transform="translate(60.009766 0)"/>
      <use xlink:href="#CourierNewPSMT-72" transform="translate(120.019531 0)"/>
      <use xlink:href="#CourierNewPSMT-6d" transform="translate(180.029297 0)"/>
      <use xlink:href="#CourierNewPSMT-61" transform="translate(240.039062 0)"/>
      <use xlink:href="#CourierNewPSMT-6c" transform="translate(300.048828 0)"/>
      <use xlink:href="#CourierNewPSMT-20" transform="translate(360.058594 0)"/>
      <use xlink:href="#CourierNewPSMT-6d" transform="translate(420.068359 0)"/>
      <use xlink:href="#CourierNewPSMT-65" transform="translate(480.078125 0)"/>
      <use xlink:href="#CourierNewPSMT-61" transform="translate(540.087891 0)"/>
      <use xlink:href="#CourierNewPSMT-6e" transform="translate(600.097656 0)"/>
      <use xlink:href="#CourierNewPSMT-3a" transform="translate(660.107422 0)"/>
      <use xlink:href="#CourierNewPSMT-20" transform="translate(720.117188 0)"/>
      <use xlink:href="#CourierNewPSMT-38" transform="translate(780.126953 0)"/>
      <use xlink:href="#CourierNewPSMT-31" transform="translate(840.136719 0)"/>
      <use xlink:href="#CourierNewPSMT-2e" transform="translate(900.146484 0)"/>
      <use xlink:href="#CourierNewPSMT-31" transform="translate(960.15625 0)"/>
      <use xlink:href="#CourierNewPSMT-20" transform="translate(1020.166016 0)"/>
      <use xlink:href="#CourierNewPSMT-45" transform="translate(1080.175781 0)"/>
      <use xlink:href="#CourierNewPSMT-55" transform="translate(1140.185547 0)"/>
      <use xlink:href="#CourierNewPSMT-52" transform="translate(1200.195312 0)"/>
     </g>
    </g>
    <g id="PathCollection_8">
     <g>
      <use xlink:href="#mbe81f66bcc" x="84.212813" y="67.730938" style="fill: #f44336; stroke: #000000; stroke-width: 0.7"/>
     </g>
    </g>
    <g id="text_15">
     <!-- Anomalous mean: 203.2 EUR -->
     <g transform="translate(104.012813 70.618438) scale(0.11 -0.11)">
      <use xlink:href="#CourierNewPSMT-41"/>
      <use xlink:href="#CourierNewPSMT-6e" transform="translate(60.009766 0)"/>
      <use xlink:href="#CourierNewPSMT-6f" transform="translate(120.019531 0)"/>
      <use xlink:href="#CourierNewPSMT-6d" transform="translate(180.029297 0)"/>
      <use xlink:href="#CourierNewPSMT-61" transform="translate(240.039062 0)"/>
      <use xlink:href="#CourierNewPSMT-6c" transform="translate(300.048828 0)"/>
      <use xlink:href="#CourierNewPSMT-6f" transform="translate(360.058594 0)"/>
      <use xlink:href="#CourierNewPSMT-75" transform="translate(420.068359 0)"/>
      <use xlink:href="#CourierNewPSMT-73" transform="translate(480.078125 0)"/>
      <use xlink:href="#CourierNewPSMT-20" transform="translate(540.087891 0)"/>
      <use xlink:href="#CourierNewPSMT-6d" transform="translate(600.097656 0)"/>
      <use xlink:href="#CourierNewPSMT-65" transform="translate(660.107422 0)"/>
      <use xlink:href="#CourierNewPSMT-61" transform="translate(720.117188 0)"/>
      <use xlink:href="#CourierNewPSMT-6e" transform="translate(780.126953 0)"/>
      <use xlink:href="#CourierNewPSMT-3a" transform="translate(840.136719 0)"/>
      <use xlink:href="#CourierNewPSMT-20" transform="translate(900.146484 0)"/>
      <use xlink:href="#CourierNewPSMT-32" transform="translate(960.15625 0)"/>
      <use xlink:href="#CourierNewPSMT-30" transform="translate(1020.166016 0)"/>
      <use xlink:href="#CourierNewPSMT-33" transform="translate(1080.175781 0)"/>
      <use xlink:href="#CourierNewPSMT-2e" transform="translate(1140.185547 0)"/>
      <use xlink:href="#CourierNewPSMT-32" transform="translate(1200.195312 0)"/>
      <use xlink:href="#CourierNewPSMT-20" transform="translate(1260.205078 0)"/>
      <use xlink:href="#CourierNewPSMT-45" transform="translate(1320.214844 0)"/>
      <use xlink:href="#CourierNewPSMT-55" transform="translate(1380.224609 0)"/>
      <use xlink:href="#CourierNewPSMT-52" transform="translate(1440.234375 0)"/>
     </g>
    </g>
    <g id="line2d_100">
     <path d="M 73.212813 82.04125 
L 84.212813 82.04125 
L 95.212813 82.04125 
" style="fill: none; stroke: #000000; stroke-opacity: 0; stroke-width: 1.5; stroke-linecap: square"/>
    </g>
    <g id="text_16">
     <!-- Mann-Whitney p = 8.9e-20 -->
     <g transform="translate(104.012813 85.89125) scale(0.11 -0.11)">
      <defs>
       <path id="CourierNewPSMT-4d" d="M 2094 1097 
L 1794 1097 
L 784 3394 
L 734 3394 
L 734 263 
L 1219 263 
Q 1313 263 1353 227 
Q 1394 191 1394 131 
Q 1394 75 1353 37 
Q 1313 0 1219 0 
L 250 0 
Q 156 0 115 37 
Q 75 75 75 131 
Q 75 191 115 227 
Q 156 263 250 263 
L 472 263 
L 472 3394 
L 306 3394 
Q 213 3394 172 3430 
Q 131 3466 131 3525 
Q 131 3584 172 3620 
Q 213 3656 306 3656 
L 950 3656 
L 1944 1394 
L 2922 3656 
L 3566 3656 
Q 3663 3656 3703 3620 
Q 3744 3584 3744 3525 
Q 3744 3466 3703 3430 
Q 3663 3394 3566 3394 
L 3403 3394 
L 3403 263 
L 3622 263 
Q 3719 263 3759 227 
Q 3800 191 3800 131 
Q 3800 75 3759 37 
Q 3719 0 3622 0 
L 2656 0 
Q 2563 0 2520 37 
Q 2478 75 2478 131 
Q 2478 191 2518 227 
Q 2559 263 2656 263 
L 3141 263 
L 3141 3394 
L 3084 3394 
L 2094 1097 
z
" transform="scale(0.015625)"/>
       <path id="CourierNewPSMT-2d" d="M 3259 1997 
L 3259 1622 
L 581 1622 
L 581 1997 
L 3259 1997 
z
" transform="scale(0.015625)"/>
       <path id="CourierNewPSMT-57" d="M 3072 0 
L 2659 0 
L 1916 2597 
L 1188 0 
L 775 0 
L 388 3394 
L 291 3394 
Q 197 3394 156 3430 
Q 116 3466 116 3525 
Q 116 3584 156 3620 
Q 197 3656 291 3656 
L 1266 3656 
Q 1363 3656 1403 3620 
Q 1444 3584 1444 3525 
Q 1444 3466 1403 3430 
Q 1363 3394 1266 3394 
L 653 3394 
L 1000 300 
L 1709 2847 
L 2113 2847 
L 2841 300 
L 3181 3394 
L 2566 3394 
Q 2472 3394 2431 3430 
Q 2391 3466 2391 3525 
Q 2391 3584 2431 3620 
Q 2472 3656 2566 3656 
L 3534 3656 
Q 3631 3656 3672 3620 
Q 3713 3584 3713 3525 
Q 3713 3466 3672 3430 
Q 3631 3394 3534 3394 
L 3438 3394 
L 3072 0 
z
" transform="scale(0.015625)"/>
       <path id="CourierNewPSMT-68" d="M 1056 3922 
L 1056 2306 
Q 1306 2578 1536 2689 
Q 1766 2800 2050 2800 
Q 2356 2800 2570 2692 
Q 2784 2584 2928 2361 
Q 3072 2138 3072 1891 
L 3072 263 
L 3366 263 
Q 3463 263 3502 227 
Q 3541 191 3541 131 
Q 3541 75 3502 37 
Q 3463 0 3366 0 
L 2513 0 
Q 2416 0 2375 37 
Q 2334 75 2334 131 
Q 2334 191 2375 227 
Q 2416 263 2513 263 
L 2806 263 
L 2806 1872 
Q 2806 2156 2601 2347 
Q 2397 2538 2031 2538 
Q 1744 2538 1541 2397 
Q 1394 2297 1056 1925 
L 1056 263 
L 1353 263 
Q 1447 263 1487 227 
Q 1528 191 1528 131 
Q 1528 75 1487 37 
Q 1447 0 1353 0 
L 497 0 
Q 403 0 362 37 
Q 322 75 322 131 
Q 322 191 362 227 
Q 403 263 497 263 
L 794 263 
L 794 3656 
L 441 3656 
Q 347 3656 306 3693 
Q 266 3731 266 3791 
Q 266 3847 306 3884 
Q 347 3922 441 3922 
L 1056 3922 
z
" transform="scale(0.015625)"/>
       <path id="CourierNewPSMT-79" d="M 1938 0 
L 719 2441 
L 641 2441 
Q 547 2441 506 2478 
Q 466 2516 466 2572 
Q 466 2613 486 2645 
Q 506 2678 539 2692 
Q 572 2706 641 2706 
L 1359 2706 
Q 1453 2706 1493 2668 
Q 1534 2631 1534 2572 
Q 1534 2516 1493 2478 
Q 1453 2441 1359 2441 
L 1006 2441 
L 2078 288 
L 3134 2441 
L 2781 2441 
Q 2688 2441 2647 2478 
Q 2606 2516 2606 2575 
Q 2606 2631 2647 2668 
Q 2688 2706 2781 2706 
L 3497 2706 
Q 3594 2706 3634 2668 
Q 3675 2631 3675 2572 
Q 3675 2531 3650 2497 
Q 3625 2463 3594 2452 
Q 3563 2441 3419 2441 
L 1756 -944 
L 2166 -944 
Q 2259 -944 2300 -980 
Q 2341 -1016 2341 -1075 
Q 2341 -1131 2300 -1168 
Q 2259 -1206 2166 -1206 
L 653 -1206 
Q 559 -1206 518 -1170 
Q 478 -1134 478 -1075 
Q 478 -1016 518 -980 
Q 559 -944 653 -944 
L 1475 -944 
L 1938 0 
z
" transform="scale(0.015625)"/>
      </defs>
      <use xlink:href="#CourierNewPSMT-4d"/>
      <use xlink:href="#CourierNewPSMT-61" transform="translate(60.009766 0)"/>
      <use xlink:href="#CourierNewPSMT-6e" transform="translate(120.019531 0)"/>
      <use xlink:href="#CourierNewPSMT-6e" transform="translate(180.029297 0)"/>
      <use xlink:href="#CourierNewPSMT-2d" transform="translate(240.039062 0)"/>
      <use xlink:href="#CourierNewPSMT-57" transform="translate(300.048828 0)"/>
      <use xlink:href="#CourierNewPSMT-68" transform="translate(360.058594 0)"/>
      <use xlink:href="#CourierNewPSMT-69" transform="translate(420.068359 0)"/>
      <use xlink:href="#CourierNewPSMT-74" transform="translate(480.078125 0)"/>
      <use xlink:href="#CourierNewPSMT-6e" transform="translate(540.087891 0)"/>
      <use xlink:href="#CourierNewPSMT-65" transform="translate(600.097656 0)"/>
      <use xlink:href="#CourierNewPSMT-79" transform="translate(660.107422 0)"/>
      <use xlink:href="#CourierNewPSMT-20" transform="translate(720.117188 0)"/>
      <use xlink:href="#CourierNewPSMT-70" transform="translate(780.126953 0)"/>
      <use xlink:href="#CourierNewPSMT-20" transform="translate(840.136719 0)"/>
      <use xlink:href="#CourierNewPSMT-3d" transform="translate(900.146484 0)"/>
      <use xlink:href="#CourierNewPSMT-20" transform="translate(960.15625 0)"/>
      <use xlink:href="#CourierNewPSMT-38" transform="translate(1020.166016 0)"/>
      <use xlink:href="#CourierNewPSMT-2e" transform="translate(1080.175781 0)"/>
      <use xlink:href="#CourierNewPSMT-39" transform="translate(1140.185547 0)"/>
      <use xlink:href="#CourierNewPSMT-65" transform="translate(1200.195312 0)"/>
      <use xlink:href="#CourierNewPSMT-2d" transform="translate(1260.205078 0)"/>
      <use xlink:href="#CourierNewPSMT-32" transform="translate(1320.214844 0)"/>
      <use xlink:href="#CourierNewPSMT-30" transform="translate(1380.224609 0)"/>
     </g>
    </g>
   </g>
  </g>
 </g>
 <defs>
  <clipPath id="pff8e42e63d">
   <rect x="63.312813" y="7.2" width="490.84" height="445.016"/>
  </clipPath>
 </defs>
</svg>
